<?xml version="1.0" encoding="UTF-8" standalone="no"?>
<!-- Created with Inkscape (http://www.inkscape.org/) -->

<svg
   xmlns:dc="http://purl.org/dc/elements/1.1/"
   xmlns:cc="http://creativecommons.org/ns#"
   xmlns:rdf="http://www.w3.org/1999/02/22-rdf-syntax-ns#"
   xmlns:svg="http://www.w3.org/2000/svg"
   xmlns="http://www.w3.org/2000/svg"
   xmlns:sodipodi="http://sodipodi.sourceforge.net/DTD/sodipodi-0.dtd"
   xmlns:inkscape="http://www.inkscape.org/namespaces/inkscape"
   width="39.388367mm"
   height="39.495487mm"
   viewBox="0 0 39.388366 39.495487"
   version="1.1"
   id="svg8"
   inkscape:version="0.92.4 (5da689c313, 2019-01-14)"
   sodipodi:docname="color-picker.svg">
  <defs
     id="defs2" />
  <sodipodi:namedview
     id="base"
     pagecolor="#ffffff"
     bordercolor="#666666"
     borderopacity="1.0"
     inkscape:pageopacity="0.0"
     inkscape:pageshadow="2"
     inkscape:zoom="3.959798"
     inkscape:cx="-2.219638"
     inkscape:cy="108.07421"
     inkscape:document-units="mm"
     inkscape:current-layer="layer1"
     showgrid="false"
     inkscape:window-width="1806"
     inkscape:window-height="1408"
     inkscape:window-x="1161"
     inkscape:window-y="76"
     inkscape:window-maximized="0" />
  <metadata
     id="metadata5">
    <rdf:RDF>
      <cc:Work
         rdf:about="">
        <dc:format>image/svg+xml</dc:format>
        <dc:type
           rdf:resource="http://purl.org/dc/dcmitype/StillImage" />
        <dc:title />
      </cc:Work>
    </rdf:RDF>
  </metadata>
  <g
     inkscape:label="Layer 1"
     inkscape:groupmode="layer"
     id="layer1"
     transform="translate(-51.192458,141.9088)">
    <path
       style="fill:#242800;fill-opacity:1;stroke-width:0.08466667"
       d="m 70.03125,-141.89453 c -0.09045,0.0132 -0.173159,0.0407 -0.257812,0.0859 0.03995,-0.0213 -0.211624,0.0664 -0.359376,0.0898 -0.945842,-0.28035 -2.205509,0.29415 -2.757824,0.31856 -0.06744,0.0139 -0.135181,0.0294 -0.199219,0.0547 -0.07529,0.0298 -0.136255,0.0938 -0.214843,0.11328 -6.47e-4,1.6e-4 -0.0013,1.3e-4 -0.002,0 -0.01033,-0.002 -0.0189,-0.0101 -0.0293,-0.0117 -0.08391,-0.0128 -0.169084,0.0163 -0.253907,0.0195 -6.66e-4,3e-5 -0.0013,-2e-5 -0.002,0 -0.123854,0.004 -0.24836,0.004 -0.371094,0.0215 -0.0568,0.008 -0.115789,0.0133 -0.167968,0.0371 -0.25134,0.30086 -0.701629,0.18666 -1.375002,0.69925 0.08677,-0.083 -0.05004,-0.0125 -0.08594,-0.0215 -1.209137,0.46897 -0.776028,0.42973 -1.863286,0.72646 -0.240751,0.1052 -0.445191,0.27929 -0.671875,0.41211 -0.277377,0.16253 -0.574665,0.29183 -0.841797,0.4707 -0.611964,0.47467 -0.599652,0.49424 -1.259768,0.89081 -0.06436,0.042 -0.120741,0.0955 -0.185547,0.13672 -0.09756,0.0621 -0.216038,0.0917 -0.304687,0.16601 -0.318217,0.6009 -0.533072,0.41212 -0.898436,0.83769 -0.709432,0.99404 -1.468421,1.14458 -1.814447,1.71106 -0.0605,0.0921 -0.119111,0.18534 -0.179687,0.27734 -0.05988,0.0909 -0.136172,0.17255 -0.181641,0.27149 -0.02935,0.0639 -0.01558,0.14607 -0.05664,0.20312 -0.106546,0.14802 -0.325821,0.17605 -0.453125,0.30665 -0.37931,0.38912 -0.544597,0.94461 -0.878907,1.37301 -0.08642,0.11074 -0.198957,0.19888 -0.289062,0.30664 -0.03792,0.0454 -0.07837,0.09 -0.105469,0.14258 -0.04425,0.0858 -0.05318,0.18606 -0.08984,0.27539 -0.0066,0.0162 -0.01592,0.0311 -0.02344,0.0469 -0.03387,0.071 -0.06109,0.14519 -0.09766,0.21484 -0.201935,0.42953 -0.495268,0.7689 -0.667969,1.16209 -0.03483,0.11491 0.01974,0.25624 -0.04492,0.35742 -0.122818,0.0575 -0.183347,0.16005 -0.251953,0.2656 -0.07935,0.14052 -0.14487,0.28896 -0.203125,0.43945 -0.06013,0.15534 -0.122564,0.31233 -0.150391,0.47656 -0.02176,0.12844 0.03124,0.26765 -0.01172,0.39063 -0.02975,0.0852 -0.120516,0.13672 -0.16211,0.21679 -0.0502,0.0967 -0.07282,0.2055 -0.101562,0.31055 -0.07865,0.28751 -0.128529,0.58212 -0.19336,0.87305 -0.04078,0.183 -0.07241,0.36831 -0.123047,0.54883 -0.03564,0.12706 -0.08976,0.24838 -0.126953,0.375 -0.08246,0.28073 -0.21289,0.55624 -0.21289,0.85156 0,0.0613 -0.0096,0.14586 -0.02344,0.21289 -0.01383,0.067 -0.04648,0.12674 -0.02344,0.0898 -0.05527,0.57669 -0.108671,0.81945 -0.05664,1.3242 0.01093,0.0572 0.0048,0.0477 0.002,0.0508 -0.0859,0.0949 -0.177921,0.2534 -0.197265,0.41406 -0.01935,0.16067 0.0056,0.29365 0.04102,0.45899 0.06864,0.32083 0.03109,0.78294 -0.0098,0.88281 -0.061,0.14909 -0.05241,0.25035 -0.04297,0.35742 0.0094,0.10708 0.03068,0.21063 0.07422,0.31836 -0.01299,-0.0321 0.02041,0.0901 0.03125,0.21875 0.01084,0.12869 0.01572,0.28603 0.0098,0.42578 -0.0073,0.17066 -0.0063,0.32982 0.002,0.46094 0.0284,0.18891 0.06584,0.34211 0.05077,0.50782 0.01193,0.0548 0.05306,0.12049 0.103515,0.1836 0.008,0.0414 0.01617,0.10424 0.01953,0.18164 0.0061,0.14061 0.02828,0.28092 0.06055,0.41211 0.03226,0.13118 0.06262,0.24206 0.148438,0.37305 -0.03578,-0.0546 0.02071,0.0572 0.04687,0.19726 0.02616,0.14001 0.0483,0.32877 0.06055,0.5332 0.0129,0.21535 0.03994,0.43955 0.07227,0.63868 0.03233,0.19912 0.05801,0.35605 0.123047,0.51171 0.114911,0.28438 0.217214,0.5534 0.31445,0.83392 0.0035,0.0185 0.004,0.0294 0.0039,0.0195 0.02037,-0.30529 -0.02622,0.10347 0.0078,0.28125 0.02795,0.0993 0.06999,0.18938 0.128906,0.2793 0.02931,0.0447 0.06836,0.23181 0.06836,0.15625 0.374281,0.61435 0.33584,1.16698 0.759768,1.79096 0.0084,0.21643 0.09219,0.39994 0.226563,0.54492 0.0535,0.0577 0.255558,0.33434 0.365234,0.52149 0.0672,0.11466 0.14187,0.22937 0.208985,0.32812 0.06711,0.0988 0.108828,0.16542 0.193359,0.25 0.09379,0.0938 0.193359,0.36294 0.193359,0.37891 0.07042,0.357 0.279178,0.55875 0.519533,0.73047 0.07135,0.20467 0.169628,0.37813 0.326171,0.53906 0.05467,0.0562 0.228559,0.2627 0.333985,0.4043 0.441692,0.48761 0.539681,0.43392 0.802728,0.89067 0.08139,0.0938 0.176954,0.17335 0.294922,0.23828 0.06826,0.0376 0.212007,0.21075 0.179688,0.14649 0.08762,0.17427 0.183453,0.32228 0.310546,0.44336 0.09547,0.091 0.240269,0.13227 0.382813,0.16601 0.05313,0.10812 0.110759,0.19059 0.177734,0.25196 0.08522,0.0781 0.18168,0.14814 0.291016,0.20703 0.05117,0.0276 0.198863,0.21116 0.191406,0.1914 0.10189,0.26996 0.278861,0.46274 0.556641,0.56836 h 0.002 c 0.04238,0.0161 0.189918,0.14515 0.162109,0.10547 0.174173,0.24868 0.359922,0.32115 0.605469,0.375 -0.02666,-0.006 0.25513,0.13065 0.367187,0.23633 0.116328,0.10968 0.226807,0.19954 0.355469,0.26563 0.05779,0.0297 0.143633,0.0155 0.214844,0.0312 0.0605,0.16113 0.157475,0.27631 0.265625,0.36718 0.153372,0.12887 0.313852,0.24864 0.589844,0.25 -0.129897,-6.5e-4 -0.07607,-0.0101 -0.04883,0 0.02724,0.0101 0.07282,0.0283 0.126953,0.0527 0.108265,0.0489 0.252562,0.11989 0.396484,0.19726 0.307742,0.16543 0.66837,0.35166 0.839844,0.43164 0.05525,0.0258 0.114334,0.0614 0.154297,0.0879 0.03996,0.0265 0.0738,0.0947 0.002,-0.0215 0.09543,0.15436 0.183252,0.16947 0.246094,0.19336 0.06284,0.0239 0.116972,0.0356 0.173828,0.0449 0.113711,0.0186 0.233723,0.0243 0.363281,0.0176 0.07358,-0.004 0.157632,8.6e-4 0.210938,0.01 0.05331,0.009 0.0915,0.0778 -0.03125,-0.0449 0.169272,0.16913 0.302996,0.2168 0.53125,0.2168 -0.138208,0 -0.06667,-0.0125 -0.01758,0.0176 0.04909,0.03 0.115387,0.0806 0.167969,0.13086 0.102971,0.0984 0.211955,0.18033 0.328125,0.24219 0.11617,0.0618 0.224524,0.12659 0.433594,0.10156 -0.06153,0.007 0.111799,0.0276 0.132812,0.0391 0.194124,0.10636 0.360507,0.16131 0.609375,0.13672 -0.03864,0.004 0.176296,0.0262 0.246094,0.0547 0.818266,0.10611 1.571954,0.43656 2.369141,0.41215 0.179025,-0.006 0.347958,-0.002 0.466797,0.008 0.05942,0.005 0.106891,0.013 0.128906,0.0176 0.02201,0.005 0.02847,0.0397 -0.07813,-0.0488 0.05644,0.0469 0.104309,0.0883 0.21875,0.12109 0.02939,0.008 0.09936,-0.0108 0.148437,-0.01 0.05686,0.022 0.112127,0.0416 0.15625,0.0488 0.06228,0.0102 0.126867,0.0166 0.199219,0.0215 0.144704,0.01 0.31876,0.0138 0.513672,0.0117 0.389824,-0.004 0.858648,-0.03 1.283203,-0.0762 0.473819,-0.052 0.754074,-0.0621 1.166016,-0.043 0.197484,0.009 0.437744,-0.0111 0.677734,-0.041 0.23999,-0.03 0.432128,-0.0517 0.626953,-0.1289 -0.07184,0.0283 0.0058,9.2e-4 0.07617,-0.004 0.06981,-0.005 0.160518,-0.006 0.240235,-0.002 0.144397,0.007 0.272769,0.005 0.408203,-0.0312 0.135433,-0.0367 0.296535,-0.13445 0.380859,-0.28516 -0.07725,0.13806 -0.08556,0.0844 -0.03711,0.0664 0.04845,-0.018 0.137315,-0.0386 0.236328,-0.0508 0.289899,-0.0357 0.555298,-0.09 0.808593,-0.26562 0.227458,-0.15778 0.69848,-0.28461 1.308594,-0.27539 0.155351,0.002 0.329721,-0.0124 0.490235,-0.0996 0.160513,-0.0872 0.262036,-0.2098 0.367187,-0.34766 0.465456,-0.40382 0.467787,-0.24462 0.86133,-0.27548 0.0998,-0.0212 0.184821,-0.0553 0.267578,-0.0977 0.384997,-0.47728 0.444145,-0.0831 1.20703,-0.77338 0.402525,-0.3077 0.08108,-0.12973 0.453124,-0.27742 0.153533,-0.17745 0.267079,-0.17894 0.474602,-0.26377 0.06986,-0.0427 0.140487,-0.0944 0.216797,-0.15429 0.15262,-0.11971 0.327784,-0.27414 0.501953,-0.44727 0.155886,-0.15496 0.313508,-0.29769 0.431641,-0.39453 0.395012,-0.32371 0.456854,-0.29223 0.9414,-0.67412 0.191772,-0.15805 0.420297,-0.36308 0.648437,-0.58008 0.228141,-0.21699 0.454588,-0.44547 0.638672,-0.64453 0.663269,-0.4733 0.952678,-0.84217 1.290998,-1.37089 0.101391,-0.15845 0.115697,-0.36122 0.210937,-0.52344 0.07345,-0.1251 0.201466,-0.23514 0.273206,-0.33877 0.145343,-0.52653 0.285811,-0.46598 0.414302,-0.67485 0.5082,-0.69464 0.255635,-0.40153 0.628907,-0.84161 0.0945,-0.12066 0.204097,-0.24076 0.271484,-0.37109 0.126873,-0.47151 0.01022,-0.33252 0.222655,-0.69729 0.08382,-0.12421 0.156592,-0.25422 0.212891,-0.37695 0.153686,-0.53938 0.507978,-0.96873 0.669888,-1.42185 0.03643,-0.0573 0.05842,-0.10623 0.08008,-0.16015 0.04332,-0.10784 0.07959,-0.23146 0.111328,-0.3711 0.04494,-0.19773 0.190215,-0.51895 0.193359,-0.52343 0.195486,-0.2787 0.286379,-0.63136 0.376954,-1.01172 0.04529,-0.19018 0.08024,-0.37872 0.09961,-0.54688 0.01937,-0.16816 0.05571,-0.28271 -0.02539,-0.50195 0.01353,0.0366 -0.0013,-0.11971 0.01758,-0.17383 0.03279,-0.094 0.05463,-0.18525 0.06641,-0.27734 -4.15e-4,-0.35992 0.273656,-0.6878 0.283206,-1.0332 0.01531,-0.34064 0.02618,-0.39296 0.0079,-0.64062 0.01374,-0.25349 0.117421,-0.60389 0.107419,-0.91992 -0.0048,-0.11574 -0.02928,-0.52117 -0.05664,-0.94141 -0.02674,-0.41059 -0.05844,-1.09766 -0.06836,-1.50781 -0.0053,-0.2187 -0.01829,-0.42794 -0.03516,-0.59766 -0.07953,-0.73929 -0.159338,-1.03205 -0.279329,-1.57429 0,-0.12519 -0.01753,-0.24361 -0.04883,-0.35546 -0.0313,-0.11186 -0.05396,-0.21223 -0.183594,-0.3418 0.07741,0.0774 0.0335,0.0472 0.02148,0 -0.01202,-0.0472 -0.02164,-0.11725 -0.02148,-0.17188 0.0013,-0.4948 -0.108135,-0.8898 -0.416015,-1.54687 -0.05947,-0.12691 -0.115275,-0.28238 -0.154297,-0.41602 -0.03902,-0.13363 -0.05663,-0.26322 -0.05664,-0.26172 0.002,-0.22321 -0.04305,-0.44133 -0.107422,-0.63476 -0.03219,-0.0967 -0.06648,-0.1844 -0.121094,-0.27344 -0.500219,-0.66557 -0.267515,-0.63196 -0.578119,-1.14463 -0.319404,-0.37063 -0.379194,-0.44587 -0.419928,-0.58988 -0.023,-0.0502 -0.04916,-0.0941 -0.07813,-0.14063 -0.05793,-0.093 -0.129112,-0.19138 -0.210937,-0.28711 -0.226311,-0.29142 -0.13708,-0.28551 -0.277347,-0.59175 -0.05877,-0.10148 -0.131036,-0.19713 -0.222656,-0.2832 -0.02047,-0.0192 -0.167358,-0.25445 -0.191406,-0.34375 -0.07765,-0.28839 -0.237519,-0.548 -0.5,-0.69922 -0.04819,-0.0277 -0.358164,-0.36196 -0.763672,-1.04101 -1.319733,-1.68322 -2.07927,-2.2785 -3.181644,-3.26948 -0.034,-0.0282 -0.06897,-0.0553 -0.105468,-0.0801 -0.210387,-0.0945 -0.211393,-0.0938 -0.2871,-0.1193 -0.09456,-0.0404 -0.188899,-0.0819 -0.279297,-0.13086 -0.472765,-0.25612 -0.320878,-0.25428 -1.371097,-0.84972 -0.924606,-0.17201 -0.688982,-0.33581 -1.337892,-0.42971 0.117729,0 -0.02603,-0.0337 -0.0293,-0.0371 -0.205427,-0.21338 -0.412102,-0.27918 -0.667969,-0.32031 -0.0963,-0.0155 -0.392739,-0.1034 -0.539062,-0.16797 -0.225863,-0.0996 -0.476105,-0.18373 -0.701172,-0.21289 -0.0419,-0.005 -0.0947,-0.0179 -0.128906,-0.0293 -0.03421,-0.0114 -0.06299,-0.0532 0.01953,0.0274 -0.125573,-0.12263 -0.205868,-0.13042 -0.294922,-0.1543 -1.260487,-0.24974 -1.727087,-0.42716 -2.449223,-0.60567 -0.115048,-0.0153 -0.232635,-0.0132 -0.359375,0 -0.131714,0.0138 -0.405147,-0.0269 -0.384765,-0.0195 -0.935963,-0.22349 -0.53889,0.0536 -0.955126,-0.25779 -0.114384,-0.0394 -0.204104,-0.0412 -0.316406,-0.043 -0.224603,-0.004 -0.543365,0.0178 -1.097656,0.0625 0.02166,-0.002 -0.304875,-0.015 -0.556641,-0.0469 -0.125883,-0.0159 -0.250044,-0.0348 -0.339843,-0.0508 -0.0449,-0.008 -0.08138,-0.0146 -0.101563,-0.0195 -0.02018,-0.005 -0.04936,-0.0341 0.04687,0.0254 -0.171977,-0.10637 -0.270877,-0.0777 -0.361328,-0.0644 z m 0.390625,2.23633 c 0.159342,0.0262 0.434813,0.059 0.642578,0.0801 0.15844,0.0161 0.627512,0.0948 0.974609,0.16796 1.216104,0.30563 2.274958,0.35747 3.378903,0.6743 0.364015,0.10447 0.701756,0.28709 1.0625,0.40235 0.195546,0.0625 0.398943,0.0977 0.595703,0.15625 0.02565,0.008 0.05135,0.0154 0.07617,0.0254 0.06156,0.0249 0.119864,0.0571 0.179687,0.0859 0.103642,0.0499 0.201955,0.11249 0.310547,0.15039 0.441406,0.12638 1.047446,0.41797 1.564419,0.66822 0.05496,0.0268 0.108916,0.0557 0.16211,0.0859 0.09401,0.0533 0.177658,0.1262 0.277343,0.16797 0.636725,0.13089 1.331716,0.79249 1.726557,1.15424 0.114714,0.10728 0.224534,0.22001 0.34375,0.32226 0.04646,0.0399 0.09435,0.0782 0.144531,0.11328 0.290562,0.11506 0.25616,0.10184 0.767576,0.54682 0.165789,0.16569 0.327166,0.2941 0.449221,0.54098 0.08821,0.0979 0.198843,0.1852 0.361328,0.23633 0.0079,0.01 0.02072,0.0253 0.03125,0.0449 0.118745,0.22189 0.259903,0.3601 0.494141,0.4668 0.0041,0.002 0.01189,0.009 0.01367,0.01 0.222922,0.29477 0.49325,0.84122 0.83984,1.03531 0.01265,0.006 0.0599,0.0444 0.08594,0.14649 0.05744,0.22517 0.147893,0.423 0.285156,0.58593 0.08665,0.10286 0.239579,0.13496 0.375,0.18946 0.319502,0.40551 0.294203,1.1203 0.591797,1.3787 h 0.002 c 0.02211,0.0183 0.103832,0.1212 0.15625,0.23047 0.05242,0.10928 0.07813,0.23533 0.07813,0.25196 -0.01189,0.5163 0.420955,0.56515 0.54883,0.98437 0.176031,0.48818 -0.01319,-0.0357 0.173814,0.63667 0.156753,0.25931 0.07853,0.21079 0.183589,0.44145 0.02993,0.27335 0.123162,0.49157 0.316406,0.69726 0.04685,0.0499 0.04213,0.0469 0.04883,0.0723 0.0067,0.0254 0.01574,0.10057 0.0078,0.25 -0.0077,0.14411 -7.34e-4,0.28905 0.01758,0.42382 0.01831,0.13478 0.03385,0.24584 0.111328,0.39063 0.0083,0.0154 0.07352,0.22747 0.08008,0.30078 0.02631,0.29393 0.05685,0.56941 0.08789,0.78516 0.01552,0.10787 0.03128,0.20013 0.04687,0.27734 0.0078,0.0386 0.01551,0.0739 0.02539,0.10938 0.0099,0.0355 0.0086,0.0605 0.06055,0.14453 -0.04089,-0.0661 -0.0251,-0.0529 -0.02148,-0.041 0.0036,0.0119 0.0087,0.0365 0.01563,0.0664 0.01384,0.0598 0.0302,0.14152 0.04297,0.22265 0.01735,0.11027 0.04265,0.21636 0.07227,0.3125 0.231266,0.37482 0.12592,1.04538 0.08785,1.66607 -0.02472,0.39728 -0.05902,0.98746 -0.07617,1.31641 -0.01456,0.27915 -0.107715,0.7297 -0.154297,0.84961 -0.169652,0.4367 -0.230137,0.73149 -0.265625,1.26562 -0.0072,0.10887 -0.105077,0.36299 -0.0957,0.34961 -0.151865,0.21682 -0.209045,0.49719 -0.160156,0.75781 0.008,0.0425 -0.0092,0.18736 -0.04492,0.25586 -0.134348,0.25765 -0.177392,0.53512 -0.177734,0.82031 -3.9e-4,0.28771 -0.17662,0.71989 -0.4375,0.99219 -0.368997,0.63758 -0.403805,0.79748 -0.531298,1.08204 -0.03787,0.0486 -0.06338,0.0918 -0.08594,0.13672 -0.04979,0.0992 -0.08879,0.20819 -0.121093,0.33008 -0.02663,0.1005 -0.183886,0.35581 -0.236329,0.4043 -0.486269,0.60312 -0.200989,0.37143 -0.503914,0.73235 -0.32802,0.59165 -0.428969,0.68619 -0.615189,1.04493 -0.0247,0.0476 -0.03703,0.10165 -0.0664,0.14651 -0.120256,0.1837 -0.346075,0.31246 -0.44108,0.48921 -0.117413,0.24671 -0.58577,0.59543 -0.648756,0.67491 -0.353733,0.21471 -0.370152,0.48497 -0.664063,0.67968 -0.08011,0.0747 -0.152144,0.15963 -0.21289,0.26172 0.0068,-0.0114 -0.06257,0.0784 -0.148438,0.15821 -0.08587,0.0798 -0.193903,0.16717 -0.289062,0.23242 -0.214575,0.18739 -0.393421,0.31619 -0.626954,0.42761 -0.100944,0.0623 -0.197798,0.14035 -0.294921,0.23438 -0.403184,0.39031 -0.797211,0.64878 -0.91211,0.6875 -0.173061,0.0583 -0.321126,0.12255 -0.474609,0.25 0.02559,-0.0213 -0.05462,0.0363 -0.140625,0.082 -0.423478,0.25043 -0.809199,0.42486 -1.228521,0.58593 -0.13388,0.083 -0.234316,0.19281 -0.330078,0.31836 -0.09249,0.12125 -0.09191,0.11726 -0.119141,0.1289 -0.02723,0.0116 -0.153099,0.0394 -0.421874,0.0664 -0.239872,0.0241 -0.413695,0.0475 -0.576172,0.0996 -0.162478,0.0521 -0.32878,0.16117 -0.423828,0.29687 0.03791,-0.0541 -0.04945,0.029 -0.158204,0.041 -0.234563,0.0259 -0.464333,0.0823 -0.673828,0.19336 -0.174488,0.0925 -0.348362,0.16409 -0.46875,0.20117 -0.06019,0.0185 -0.107663,0.0276 -0.123047,0.0293 -0.01538,0.002 0.0069,-0.0317 0.13086,0.0449 -0.142416,-0.088 -0.250835,-0.0705 -0.324219,-0.0586 -0.07338,0.0119 -0.129095,0.0312 -0.181641,0.0547 -0.105091,0.0471 -0.200589,0.11008 -0.294921,0.18946 -0.0989,0.0832 -0.09731,0.0789 -0.121094,0.084 -0.02379,0.005 -0.130119,0.0105 -0.353516,-0.01 -0.230622,-0.0209 -0.38536,-0.0374 -0.5625,-0.004 -0.17714,0.0335 -0.344854,0.15432 -0.439453,0.25586 -0.04286,0.046 -0.0069,0.0176 -0.01563,0.0195 -0.0088,0.002 -0.0975,0.009 -0.273438,-0.006 -0.425728,-0.037 -0.728606,-0.0533 -0.972656,-0.0391 -0.353435,0.14559 -0.575351,0.13211 -0.871094,0.0605 -0.339835,-0.0824 -0.702661,-0.0959 -1.064453,-0.0469 -0.252711,0.0343 -0.647221,0.0209 -1.089843,-0.0508 -0.205089,-0.0332 -0.398353,-0.0581 -0.550782,-0.0742 -0.659476,-0.0473 -0.04948,0.0701 -0.750001,-0.0937 -0.290749,-0.0774 -0.586757,-0.14705 -0.796875,-0.16406 -0.0126,-10e-4 -0.177118,-0.0764 -0.152343,-0.0547 -0.137149,-0.12021 -0.240291,-0.14721 -0.369141,-0.18945 -0.12885,-0.0422 -0.270645,-0.0743 -0.414063,-0.0937 -0.189443,-0.0257 -0.514105,-0.11927 -0.582031,-0.15039 -0.206883,-0.0949 -0.483897,-0.17671 -0.724609,-0.22266 -0.130776,-0.0249 -0.438215,-0.14193 -0.53125,-0.19922 -0.105714,-0.0651 -0.216055,-0.11971 -0.326172,-0.16211 -0.110117,-0.0424 -0.198913,-0.0801 -0.357422,-0.0801 -0.08138,-1.4e-4 -0.123373,-0.0155 -0.136719,-0.0195 -0.0279,-0.0569 -0.03646,-0.13771 -0.07031,-0.17578 -0.07114,-0.08 -0.148652,-0.13495 -0.230469,-0.17969 -0.718764,-0.0516 -0.856094,-0.46192 -1.541008,-0.75018 -0.0084,-0.01 -0.0331,-0.0446 -0.04883,-0.0801 -0.05522,-0.12472 -0.12699,-0.25621 -0.263672,-0.35742 -0.136681,-0.1012 -0.306064,-0.13086 -0.439453,-0.13086 -0.0064,-0.005 -0.04828,-0.0415 -0.113281,-0.14062 -0.487057,-0.56594 -0.446283,-0.32451 -0.898441,-0.69532 -0.103129,-0.0962 -0.202021,-0.18382 -0.28711,-0.25196 -0.04254,-0.0341 -0.08066,-0.0627 -0.121093,-0.0898 -0.01739,-0.0117 -0.03678,-0.0223 -0.06055,-0.0352 -0.01808,-0.0229 -0.04381,-0.0582 -0.06836,-0.0996 -0.14197,-0.23967 -0.352501,-0.42862 -0.582031,-0.59961 -0.07413,-0.0552 -0.156211,-0.12894 -0.21875,-0.19336 -0.06254,-0.0644 -0.10779,-0.14274 -0.08789,-0.0996 -0.04371,-0.0948 -0.09836,-0.17561 -0.169921,-0.24805 -0.204447,-0.0449 -0.672474,-0.57276 -0.710934,-0.68947 -0.02266,-0.043 -0.04622,-0.0793 -0.07227,-0.11719 -0.05209,-0.0758 -0.114968,-0.15807 -0.189453,-0.24805 -0.14897,-0.17997 -0.338839,-0.38637 -0.52539,-0.56836 -0.07825,-0.0763 -0.250172,-0.34991 -0.28125,-0.4414 -0.09287,-0.27342 -0.266578,-0.56529 -0.460938,-0.79883 -0.109385,-0.13144 -0.281289,-0.45063 -0.306641,-0.53711 -0.03674,-0.12533 -0.0861,-0.24255 -0.144531,-0.34961 -0.05843,-0.10707 -0.09954,-0.19704 -0.24414,-0.30274 0.07774,0.0568 0.02961,0.0288 0.0078,-0.0195 -0.0218,-0.0483 -0.04537,-0.12064 -0.05469,-0.17578 -0.01935,-0.1145 -0.04631,-0.22023 -0.08008,-0.3164 -0.01688,-0.0481 -0.03412,-0.0932 -0.06055,-0.14258 -0.01111,-0.0208 -0.05627,-0.0566 -0.07227,-0.082 0.0058,0.0138 0.0078,0.0227 0.0078,0.0488 0,-0.0309 -0.01484,-0.0318 -0.01758,-0.0566 -0.02266,-0.033 -0.01829,-0.058 -0.0918,-0.10351 0.07991,0.0494 0.08292,0.077 0.08984,0.0957 -0.01443,-0.11345 -0.04003,-0.19838 -0.07813,-0.26758 -0.0473,-0.0859 -0.105754,-0.16685 -0.177734,-0.24414 -0.0059,-0.006 -0.06445,-0.17762 -0.06445,-0.13476 0,-0.23941 -0.04897,-0.41922 -0.203125,-0.62305 3.72e-4,4.9e-4 -0.04744,-0.1577 -0.04687,-0.11914 -0.0014,-0.0932 -0.01486,-0.17678 -0.04297,-0.26172 -0.02811,-0.0849 -0.03387,-0.1827 -0.21875,-0.29687 0.195706,0.12101 0.142158,0.18424 0.142578,0.1875 4.2e-4,0.003 1.17e-4,-0.0212 0.0039,-0.041 0.04906,-0.25669 -0.01193,-0.50855 -0.193359,-0.70898 0.03173,0.035 -0.0052,-0.0121 -0.02539,-0.0703 -0.0202,-0.0583 -0.03848,-0.13473 -0.04297,-0.18554 -0.02202,-0.24929 -0.09987,-0.57699 -0.19336,-0.84766 -0.04962,-0.14367 -0.144576,-0.67609 -0.164062,-1.03516 -0.02261,-0.41669 -0.06729,-0.85883 -0.138672,-1.1289 -0.0555,-0.21001 -0.0542,-0.17233 -0.01367,-0.24805 0.05503,-0.10282 0.110775,-0.22126 0.113281,-0.375 0.0025,-0.15374 -0.05923,-0.29274 -0.11914,-0.38867 0.02284,0.0366 -10e-4,-0.10503 -0.01172,-0.0586 0.0266,-0.11556 0.03652,-0.22424 0.05273,-0.39453 0.01622,-0.17028 0.0314,-0.37684 0.04297,-0.58007 0.04077,-0.71587 0.07627,-1.18795 0.115234,-1.48047 0.03896,-0.29253 0.112866,-0.39084 0.05859,-0.33008 0.151361,-1.02755 0.293136,-0.25145 0.234328,-1.29282 0.006,-0.15194 0.01886,-0.30489 0.05273,-0.45313 0.107152,-0.26235 0.114509,-0.51 0.193373,-0.71097 0.43585,-1.12102 0.601229,-1.08837 0.744131,-1.81841 0.163987,-0.0391 0.195402,-0.38084 0.226564,-0.51756 0.0094,-0.01 0.0263,-0.008 0.03711,-0.0156 0.04877,-0.0358 0.08226,-0.0892 0.117188,-0.13867 0.06702,-0.0948 0.124566,-0.19656 0.175781,-0.30078 0.08715,-0.40443 0.316422,-0.68181 0.373068,-1.04489 0.06605,-0.13325 0.199401,-0.22119 0.289063,-0.33984 0.225242,-0.29806 0.41,-0.62475 0.623046,-0.93164 0.06543,-0.0943 0.130212,-0.18914 0.201172,-0.2793 0.172467,-0.21913 0.414026,-0.38854 0.544922,-0.63477 0.0035,-0.007 0.001,-0.0159 0.0059,-0.0215 0.03811,-0.0441 0.113697,-0.0351 0.160156,-0.0703 0.08589,-0.0651 0.13482,-0.16826 0.205078,-0.25 0.160462,-0.18668 0.312509,-0.38267 0.49414,-0.54883 0.159191,-0.14563 0.340548,-0.26534 0.517579,-0.38867 0.107429,-0.0748 0.245414,-0.11303 0.330078,-0.2129 0.07844,-0.0925 0.07635,-0.23365 0.144531,-0.33398 0.107645,-0.15839 0.262477,-0.27974 0.40625,-0.40625 0.01359,-0.012 0.02867,-0.0221 0.04297,-0.0332 0.65727,-0.81862 0.941095,-0.53992 1.513668,-1.01387 0.08936,-0.0596 0.183786,-0.1113 0.277343,-0.16407 0.190531,-0.10747 0.397333,-0.18739 0.578125,-0.31054 0.124839,-0.085 0.213534,-0.21985 0.345703,-0.29297 0.03766,-0.0208 0.08244,-0.0248 0.123047,-0.0391 1.170101,-0.43491 1.01906,-0.61469 2.08593,-0.89264 0.124687,-0.0539 0.227351,-0.28873 0.34375,-0.21875 0.0073,0.004 -0.0084,0.0198 -0.002,0.0254 0.802332,-0.35712 0.224206,-0.19638 0.964847,-0.33975 0.409167,-0.0793 0.825373,-0.12139 1.232421,-0.21093 0.706096,-0.38814 1.436265,-0.25512 2.4297,-0.42953 0.172802,-0.0308 0.362103,-0.0554 0.517578,-0.0684 0.155475,-0.013 0.304517,-0.004 0.28125,-0.008 z"
       id="path4542"
       inkscape:connector-curvature="0"
       sodipodi:nodetypes="ccccaaaaaaaccccaccacccaaaaaaaaaccccaaaaaaaasccccccccccccccccccccccccccccccccccccccccccccccccccccscccccccccccccccccccscccccccccccccccsccccccccccccccccaacccccccscccsccccccccccccsccccccccccccccccccaccccccccccccccccccccccccaaaaaccaccacccccccccccccccccccsccccccccccccccccccccccccccaaccccccccccccccccccccccccccccccccccccccccccccsccccccccccccccccccccccccccccccccccccccccccccccccccccccccccccccccaaccaaaaaaaaaaaaccaaaccaccccscc" />
  </g>
</svg>
