<?xml version="1.0" encoding="UTF-8" standalone="no"?>
<!-- Created with Inkscape (http://www.inkscape.org/) -->

<svg
   xmlns:dc="http://purl.org/dc/elements/1.1/"
   xmlns:cc="http://creativecommons.org/ns#"
   xmlns:rdf="http://www.w3.org/1999/02/22-rdf-syntax-ns#"
   xmlns:svg="http://www.w3.org/2000/svg"
   xmlns="http://www.w3.org/2000/svg"
   xmlns:sodipodi="http://sodipodi.sourceforge.net/DTD/sodipodi-0.dtd"
   xmlns:inkscape="http://www.inkscape.org/namespaces/inkscape"
   width="13.522069mm"
   height="17.325792mm"
   viewBox="0 0 13.522069 17.325792"
   version="1.1"
   id="svg8"
   inkscape:version="0.92.4 (5da689c313, 2019-01-14)"
   sodipodi:docname="drawllab-icon-mouse.svg">
  <defs
     id="defs2" />
  <sodipodi:namedview
     id="base"
     pagecolor="#ffffff"
     bordercolor="#666666"
     borderopacity="1.0"
     inkscape:pageopacity="0.0"
     inkscape:pageshadow="2"
     inkscape:zoom="3.959798"
     inkscape:cx="-49.19707"
     inkscape:cy="70.805623"
     inkscape:document-units="mm"
     inkscape:current-layer="layer1"
     showgrid="false"
     inkscape:window-width="1806"
     inkscape:window-height="1408"
     inkscape:window-x="2177"
     inkscape:window-y="86"
     inkscape:window-maximized="1" />
  <metadata
     id="metadata5">
    <rdf:RDF>
      <cc:Work
         rdf:about="">
        <dc:format>image/svg+xml</dc:format>
        <dc:type
           rdf:resource="http://purl.org/dc/dcmitype/StillImage" />
        <dc:title></dc:title>
      </cc:Work>
    </rdf:RDF>
  </metadata>
  <g
     inkscape:label="Layer 1"
     inkscape:groupmode="layer"
     id="layer1"
     transform="translate(-239.03321,251.91112)">
    <path
       style="fill:#5e878b;fill-opacity:1;stroke-width:0.08466667"
       d="m 252.29351,-241.59649 c -0.70411,0.30879 -1.52448,0.0211 -2.27629,0.0885 -0.76042,-0.0109 -1.50728,0.0119 -2.26731,-0.12629 -0.47038,0.14568 -1.60438,-0.59423 -1.69731,0.08 0.38043,0.69088 0.81272,1.39502 1.16179,2.09364 0.41395,0.53507 0.66221,1.1427 1.07978,1.65963 0.38027,0.5959 0.885,1.24497 0.62265,1.99587 -0.10805,0.80058 -0.99895,1.49571 -1.78946,1.11045 -0.94336,-0.14756 -1.15797,-1.05559 -1.68178,-1.67869 -0.39395,-0.7043 -0.7261,-1.44595 -1.14093,-2.14445 -0.2924,-0.58899 -0.58221,-1.1811 -0.80904,-1.79907 -1.00285,1.36046 -2.1152,3.11064 -3.08665,4.49402 -0.18913,0.44146 -0.74259,0.98942 -0.93713,0.22538 -0.28178,-0.81968 -0.34699,-1.71974 -0.37157,-2.59007 0.13078,-2.19538 -0.0866,-4.69545 -0.01,-6.9671 -0.006,-0.6375 -0.0903,-1.29508 -0.0297,-1.93998 -0.0826,-0.81958 0.0526,-1.67622 0.007,-2.51351 0.003,-0.73756 -0.08,-1.46357 0.12385,-2.19257 0.69824,-0.42472 1.33041,0.49252 1.92134,0.78691 0.6515,0.40112 1.2169,0.89638 1.79928,1.36282 0.50597,0.54006 1.0696,1.03993 1.70262,1.45065 0.55341,0.47436 1.11949,0.92212 1.73372,1.30959 0.6377,0.47674 1.31185,0.89571 1.91775,1.41497 0.60487,0.41665 1.12867,0.9441 1.75067,1.36051 0.6086,0.39265 1.02864,1.01385 1.6373,1.40446 0.24188,0.27751 1.41614,0.66458 0.6389,1.11431 z"
       id="path5104"
       inkscape:connector-curvature="0"
       sodipodi:nodetypes="ccccccccccccccccccccccccccc" />
  </g>
</svg>
