<?xml version="1.0" encoding="UTF-8" standalone="no"?>
<!-- Created with Inkscape (http://www.inkscape.org/) -->

<svg
   xmlns:dc="http://purl.org/dc/elements/1.1/"
   xmlns:cc="http://creativecommons.org/ns#"
   xmlns:rdf="http://www.w3.org/1999/02/22-rdf-syntax-ns#"
   xmlns:svg="http://www.w3.org/2000/svg"
   xmlns="http://www.w3.org/2000/svg"
   xmlns:sodipodi="http://sodipodi.sourceforge.net/DTD/sodipodi-0.dtd"
   xmlns:inkscape="http://www.inkscape.org/namespaces/inkscape"
   width="40.628967mm"
   height="38.746933mm"
   viewBox="0 0 40.628967 38.746933"
   version="1.1"
   id="svg8"
   inkscape:version="0.92.4 (5da689c313, 2019-01-14)"
   sodipodi:docname="drawllab-icon.svg">
  <defs
     id="defs2" />
  <sodipodi:namedview
     id="base"
     pagecolor="#ffffff"
     bordercolor="#666666"
     borderopacity="1.0"
     inkscape:pageopacity="0.0"
     inkscape:pageshadow="2"
     inkscape:zoom="3.959798"
     inkscape:cx="48.140436"
     inkscape:cy="156.28753"
     inkscape:document-units="mm"
     inkscape:current-layer="layer1"
     showgrid="false"
     inkscape:window-width="1806"
     inkscape:window-height="1408"
     inkscape:window-x="1315"
     inkscape:window-y="106"
     inkscape:window-maximized="0" />
  <metadata
     id="metadata5">
    <rdf:RDF>
      <cc:Work
         rdf:about="">
        <dc:format>image/svg+xml</dc:format>
        <dc:type
           rdf:resource="http://purl.org/dc/dcmitype/StillImage" />
        <dc:title />
      </cc:Work>
    </rdf:RDF>
  </metadata>
  <g
     inkscape:label="Layer 1"
     inkscape:groupmode="layer"
     id="layer1"
     transform="translate(-214.63406,268.22562)">
    <path
       style="fill:#96bbbf;fill-opacity:1;stroke-width:0.08466667"
       d="m 223.7147,-229.50348 c -1.34703,0.17706 -2.52646,-0.60754 -2.88637,-1.93005 -0.25539,-1.35072 1.15337,-2.31922 1.82563,-3.34367 0.49062,-1.12644 1.25452,-1.71029 1.86491,-2.76679 0.29686,-0.59704 0.45348,-1.05592 0.7672,-1.42404 0.15161,-0.17791 0.14191,-0.30345 0.40048,-0.44432 0.17378,-0.0947 0.83118,-0.11943 1.36061,-0.37256 0.41224,-0.19712 0.63324,-0.52348 0.89564,-0.8366 0.51717,-0.6171 0.0828,-1.36668 1.31474,-2.0263 0.43517,-0.28938 0.57583,-1.41689 0.66969,-1.97296 0.0499,-0.29577 -7.5e-4,-0.62443 0.11195,-0.81955 0,0 0.45216,-0.68519 0.83165,-1.12421 0.76039,-0.873 1.19125,-1.86502 1.91301,-2.73947 0.5143,-1.07372 1.42813,-1.77633 1.91187,-2.82725 0.60432,-0.93666 1.37335,-1.73916 2.04483,-2.59138 0.47279,-1.07974 1.33113,-2.07807 2.11481,-2.9709 0.69631,-1.16401 1.70613,-2.18284 2.41618,-3.40162 1.09343,-1.80173 2.56006,0.0614 3.68261,0.82353 1.72302,1.1177 -0.52501,2.62549 -0.98791,3.88213 -0.68083,1.2335 -1.70264,2.25372 -2.39633,3.49077 -0.90651,0.98948 -1.53933,2.0463 -2.37419,3.14284 -0.7323,1.02693 -1.54917,2.00841 -2.16028,3.12615 -0.84915,0.87716 -1.34095,1.94279 -2.1509,2.82698 -0.81261,1.14458 -1.52931,2.27958 -2.41087,3.34767 -0.88295,1.32907 -1.7507,2.59679 -2.65926,3.86866 -0.8349,0.97946 -1.36101,2.23305 -2.18274,3.15252 -0.7601,1.06749 -1.36452,2.16809 -2.24916,3.2087 -0.38347,0.46972 -1.04829,0.81299 -1.6678,0.72172 z"
       id="path5106"
       inkscape:connector-curvature="0"
       sodipodi:nodetypes="ccccsssacssccccccccccccccccc" />
    <path
       style="fill:#5e878b;fill-opacity:1;stroke-width:0.08466667"
       d="m 215.08552,-239.40903 c 0.37849,-1.61771 2.51736,-2.07291 5.25787,-4.39514 0.62591,-0.48814 1.22175,-0.77338 1.8387,-1.25965 0.48881,0.0813 1.48867,1.00687 2.73244,-0.47862 0.44082,-0.51645 0.8946,-1.101 1.58221,-1.15702 0.10542,-0.009 0.48248,-0.005 0.66443,-0.13994 0.66,-0.48822 0.93446,-1.28279 1.19054,-2.15595 0.64237,-0.61566 1.61315,-0.84715 2.32033,-1.39118 0.58238,-0.49512 1.24378,-0.67198 1.90095,-1.07812 0.4923,-0.4703 1.19482,-0.78898 1.74318,-1.0901 0.368,0.72392 -0.66186,1.10305 -0.85149,1.72802 -0.57587,0.87774 -1.26601,1.68147 -1.78068,2.598 -0.66089,0.56987 -1.0161,2.06625 -1.88574,2.36065 -0.80564,0.21755 -1.39429,0.3088 -1.76484,1.10202 -0.44611,0.61813 -1.19859,1.09469 -1.90633,1.28985 -0.86685,0.36136 -1.10337,0.98986 -1.18813,1.82332 0.14814,0.96653 -1.20426,1.17353 -1.70592,1.79383 -0.74671,0.41903 -1.35278,0.99447 -2.1512,1.31003 -1.08671,0.72354 -2.56006,2.02505 -3.68349,1.97838 -1.97552,-0.23369 -2.69132,-1.22067 -2.31283,-2.83838 z"
       id="path5102"
       inkscape:connector-curvature="0"
       sodipodi:nodetypes="zcccsacccccccccccccz" />
    <path
       style="fill:#96bbbf;fill-opacity:1;stroke-width:0.08466667"
       d="m 225.45667,-242.11699 c 0.23603,-1.17534 1.27254,-1.08637 2.05797,-1.60745 0.21819,-0.15499 0.38992,-0.30298 0.51043,-0.50137 0.11761,-0.31147 0.72332,-1.12557 1.30896,-1.18574 0.16768,-0.0173 0.56079,-0.13801 0.43601,0.25621 -0.0127,0.1367 -0.1133,0.54391 -0.10115,0.75413 -0.0673,0.79614 -0.24572,1.52548 -0.67978,1.59383 -0.24531,0.0386 -0.88244,0.73146 -0.96257,1.125 -0.10629,0.52199 -0.2859,0.9823 -0.53946,1.28573 -0.28344,0.33919 -0.48089,0.48482 -1.35679,0.67991 -0.87589,0.19511 -0.93399,-1.11548 -0.67362,-2.40025 z"
       id="path5100"
       inkscape:connector-curvature="0"
       sodipodi:nodetypes="cccaccscczc" />
    <path
       style="fill:#5e878b;fill-opacity:1;stroke-width:0.08466667"
       d="m 222.66013,-245.1826 c -0.38232,-0.02 -0.42594,-0.42542 -0.18096,-1.04318 0.0299,-0.0755 0.0758,-0.21764 0.10198,-0.31605 0.26134,-0.72751 0.85322,-1.11562 1.36588,-1.34234 0.33225,-0.22858 0.65562,-0.0604 0.9843,-0.0345 0.48139,0.0352 0.48846,-0.0199 0.86948,-0.22548 0.22921,-0.12366 0.46855,-0.28885 0.53187,-0.36707 0.18633,-0.23021 1.10146,-0.56509 1.39758,-0.51143 0.32356,0.0586 0.33331,0.1586 0.0738,0.75666 -0.38903,0.89649 -0.85322,1.37411 -1.30889,1.34671 -0.43751,-0.0263 -0.95387,0.28302 -1.36433,0.81729 -0.33442,0.43532 -0.73832,0.83059 -1.2435,0.99091 -0.39057,0.12396 -0.81567,-0.0136 -1.22721,-0.0715 z"
       id="path5098"
       inkscape:connector-curvature="0"
       sodipodi:nodetypes="ccccccccsccacc" />
    <path
       style="fill:#5e878b;fill-opacity:1;stroke-width:0.08466667"
       d="m 241.39372,-251.23439 c 0.24452,-0.56685 0.63504,-1.05451 0.99281,-1.55158 0.48375,-0.68738 1.01208,-1.39897 1.37957,-2.09863 0.73087,-1.11689 1.54073,-2.18424 2.18863,-3.35379 0.25503,-0.29942 0.31692,-0.74453 0.6492,-0.97992 0.2301,0.29699 0.43473,0.6609 0.65667,0.98248 0.32139,0.47923 0.54794,1.01325 0.8939,1.47672 0.18541,0.3657 0.59878,0.91854 0.11594,1.23178 -0.92432,0.69381 -1.84712,1.16228 -2.67532,1.8399 -1.27541,0.8542 -2.44713,1.58375 -3.644,2.32983 -0.16181,0.0772 -0.38389,0.27583 -0.5574,0.12321 z"
       id="path5096"
       inkscape:connector-curvature="0"
       sodipodi:nodetypes="ccccccccccc" />
    <path
       style="fill:#5e878b;fill-opacity:1;stroke-width:0.08466667"
       d="m 248.83792,-256.22925 c -0.0863,-0.057 -0.19912,-0.1991 -0.25072,-0.31591 -0.0516,-0.11682 -0.13045,-0.26015 -0.25406,-0.42495 -0.12364,-0.16477 -0.27264,-0.40647 -0.33124,-0.53706 -0.0586,-0.13059 -0.13972,-0.26952 -0.18012,-0.30878 -0.0405,-0.0393 -0.1587,-0.2289 -0.26274,-0.42147 -0.10402,-0.19258 -0.24543,-0.39694 -0.31421,-0.45414 -0.0688,-0.0573 -0.18803,-0.27914 -0.26506,-0.49321 -0.15428,-0.42892 -0.12992,-0.48633 0.37588,-0.88614 0.25753,-0.20355 1.18119,-0.65966 1.72659,-0.85258 0.39135,-0.13846 0.56664,-0.21947 0.80107,-0.3703 0.11118,-0.0715 0.22161,-0.11719 0.24544,-0.10151 0.0238,0.0157 0.25251,-0.0558 0.50801,-0.15975 0.25558,-0.10352 0.67028,-0.24705 0.92157,-0.31882 0.2513,-0.0718 0.56558,-0.16943 0.69841,-0.21714 0.9407,-0.33767 0.99906,-0.3473 1.13234,-0.1874 0.0708,0.0852 0.27942,0.44049 0.46341,0.78946 l 0.33455,0.63449 -0.24133,0.38243 c -0.13272,0.21033 -0.34217,0.45967 -0.46541,0.55406 -0.12325,0.0944 -0.35598,0.28713 -0.51717,0.42827 -0.16119,0.14115 -0.49144,0.4273 -0.73387,0.6359 -0.24244,0.20859 -0.45412,0.40907 -0.47043,0.44549 -0.0163,0.0364 -0.11793,0.13897 -0.22586,0.22787 -0.10794,0.0889 -0.57525,0.49832 -1.03848,0.90986 -0.46322,0.41152 -0.97594,0.69985 -1.06061,0.74717 -0.0847,0.0473 -0.18802,0.14986 -0.22967,0.22787 -0.23026,0.12189 -0.19009,0.18608 -0.36636,0.0658 z"
       id="path5094"
       inkscape:connector-curvature="0"
       sodipodi:nodetypes="cscccccccccscccccccccsccccccc" />
    <path
       style="fill:#5e878b;fill-opacity:1;stroke-width:0.08466667"
       d="m 254.25802,-261.6341 c -0.12224,-0.23181 -0.23399,-0.47885 -0.24837,-0.54897 -0.0141,-0.0702 -0.0683,-0.14288 -0.11961,-0.16173 -0.23021,-0.0844 -0.0868,-0.19827 0.36678,-0.29129 0.68033,-0.13952 0.93862,-0.0864 0.99847,0.20543 0.0266,0.13057 -0.0174,0.32918 -0.10124,0.45454 -0.19132,0.2863 -0.5721,0.74263 -0.62948,0.7544 -0.0244,0.005 -0.14435,-0.18057 -0.26656,-0.41238 z"
       id="path5092"
       inkscape:connector-curvature="0" />
    <path
       style="fill:#96bbbf;fill-opacity:1;stroke-width:0.08466667"
       d="m 245.79318,-260.01184 c -0.21342,-0.25378 -0.44202,-0.38675 -0.72747,-0.55525 -0.40931,-0.34205 -0.85821,-0.63802 -1.24311,-1.00821 -0.23621,-0.20222 -0.5786,-0.31918 -0.75093,-0.6249 -0.31773,-0.22799 -0.31267,-0.72496 0.0621,-0.88325 0.26658,-0.21364 0.38026,-0.58077 0.69841,-0.73878 0.25473,-0.25046 0.49192,-0.51726 0.78616,-0.72085 0.33171,-0.26383 0.53284,-0.66545 0.9088,-0.87199 0.41282,-0.35309 0.83432,-0.69575 1.27834,-1.0088 0.26028,-0.28932 0.62179,-0.46298 0.90606,-0.72903 0.0968,-0.0494 0.19345,-0.22271 0.29038,-0.18857 0.44238,0.37469 0.91574,0.71622 1.32586,1.12624 0.15246,0.29369 -0.19849,0.52841 -0.12575,0.81949 -0.11763,0.28988 -0.28727,0.55621 -0.41002,0.84297 -0.20703,0.30585 -0.40622,0.61662 -0.54438,0.95753 -0.25601,0.30838 -0.27873,0.70435 -0.55138,0.98747 -0.22834,0.51483 -0.46258,1.02855 -0.76282,1.50707 -0.18483,0.38144 -0.47466,0.70421 -0.61819,1.10586 -0.11175,0.23422 -0.37885,0.0947 -0.52206,-0.017 z"
       id="path5090"
       inkscape:connector-curvature="0" />
    <path
       style="fill:#96bbbf;fill-opacity:1;stroke-width:0.08466667"
       d="m 249.15685,-266.90929 c -0.20752,-0.19124 -0.4838,-0.42445 -0.61397,-0.51825 l -0.23667,-0.17053 0.18728,-0.11402 c 0.10301,-0.0627 0.20548,-0.12093 0.22771,-0.12939 0.0222,-0.009 0.0743,-0.0448 0.11583,-0.0809 0.0415,-0.0361 0.2176,-0.12983 0.39145,-0.20813 0.26313,-0.11857 0.3449,-0.12365 0.48812,-0.0299 0.20558,0.13451 0.27001,0.4613 0.15276,0.77472 -0.0469,0.12522 -0.12942,0.36 -0.18349,0.52171 -0.0541,0.16173 -0.1103,0.29593 -0.12498,0.29824 -0.0147,0.002 -0.19649,-0.15227 -0.40401,-0.34351 z"
       id="path4542"
       inkscape:connector-curvature="0" />
  </g>
</svg>
