<?xml version="1.0" encoding="UTF-8" standalone="no"?>
<!-- Created with Inkscape (http://www.inkscape.org/) -->

<svg
   xmlns:dc="http://purl.org/dc/elements/1.1/"
   xmlns:cc="http://creativecommons.org/ns#"
   xmlns:rdf="http://www.w3.org/1999/02/22-rdf-syntax-ns#"
   xmlns:svg="http://www.w3.org/2000/svg"
   xmlns="http://www.w3.org/2000/svg"
   xmlns:sodipodi="http://sodipodi.sourceforge.net/DTD/sodipodi-0.dtd"
   xmlns:inkscape="http://www.inkscape.org/namespaces/inkscape"
   width="39.450474mm"
   height="38.699539mm"
   viewBox="0 0 39.450473 38.699539"
   version="1.1"
   id="svg8"
   inkscape:version="0.92.4 (5da689c313, 2019-01-14)"
   sodipodi:docname="layers.svg">
  <defs
     id="defs2" />
  <sodipodi:namedview
     id="base"
     pagecolor="#ffffff"
     bordercolor="#666666"
     borderopacity="1.0"
     inkscape:pageopacity="0.0"
     inkscape:pageshadow="2"
     inkscape:zoom="2.8"
     inkscape:cx="-8.3072213"
     inkscape:cy="86.170529"
     inkscape:document-units="mm"
     inkscape:current-layer="layer1"
     showgrid="false"
     inkscape:window-width="1806"
     inkscape:window-height="1408"
     inkscape:window-x="1161"
     inkscape:window-y="76"
     inkscape:window-maximized="0" />
  <metadata
     id="metadata5">
    <rdf:RDF>
      <cc:Work
         rdf:about="">
        <dc:format>image/svg+xml</dc:format>
        <dc:type
           rdf:resource="http://purl.org/dc/dcmitype/StillImage" />
        <dc:title></dc:title>
      </cc:Work>
    </rdf:RDF>
  </metadata>
  <g
     inkscape:label="Layer 1"
     inkscape:groupmode="layer"
     id="layer1"
     transform="translate(-212.34746,226.07854)">
    <path
       style="fill:#242800;fill-opacity:1;stroke-width:0.08466667"
       d="m 213.36188,-187.43036 c -1.53409,-0.78583 -0.5832,-3.06254 -0.83964,-4.48902 -0.0912,-1.62656 -0.0287,-3.12098 -0.0687,-4.67856 -0.15722,-1.7388 0.1704,-3.38211 -0.0197,-5.05233 0.0726,-1.2777 0.13505,-2.79033 -0.061,-4.143 0.23347,-1.45752 0.12008,-2.83099 0.24485,-4.30857 0.0845,-1.79086 -0.36792,-3.90442 0.52555,-5.44352 1.0355,-0.16735 2.21697,0.17293 3.26965,-0.1756 1.77029,0.29217 3.61446,-0.0117 5.39484,0.0988 1.30809,-0.32993 3.39668,0.88903 3.02527,-1.16844 -0.31879,-1.54122 0.32994,-2.85581 -0.0196,-4.42696 0.48356,-1.44152 -0.61235,-3.92284 0.88931,-4.71287 1.15643,0.11835 2.35767,-0.11621 3.45121,0.0403 1.90575,-0.14353 3.71879,-0.0208 5.6015,-0.0795 1.38104,0.0821 2.64606,-0.064 4.02417,0.0961 1.52891,-0.0302 3.18024,-0.15863 4.73141,-0.0666 1.79987,-0.18765 3.61727,0.0347 5.44125,0.07 1.42455,-0.2429 3.40468,-0.0314 2.5885,1.99421 0.27001,1.57251 0.008,3.10723 0.13613,4.75594 -0.14655,1.54294 0.16209,3.16992 -0.0233,4.71302 -0.13518,1.97913 -0.0416,3.90635 -0.0579,5.88644 -0.11175,1.95765 -0.13694,3.85847 -0.15722,5.81958 -0.24588,1.46243 0.68044,3.82429 -0.63473,4.78998 -1.79148,0.21001 -3.58283,0.14916 -5.32974,0.0929 -1.7715,-0.006 -3.57867,0.0515 -5.35187,-0.0209 -1.83491,0.19379 -0.44965,3.21779 -0.96791,4.53686 0.0394,1.74531 0.0851,3.51037 -0.0478,5.28179 -1.36391,1.076 -3.52252,0.30907 -5.13392,0.62479 -1.93438,-0.26795 -3.9235,0.0865 -5.8752,-0.14334 -1.86777,0.0707 -3.76765,0.008 -5.63517,-0.15695 -1.23189,0.29432 -2.63902,0.0331 -4.04409,0.17201 -1.6835,0.04 -3.39272,-0.0354 -5.05609,0.0934 z m 6.05367,-1.39139 c 1.71495,-0.0906 3.40957,0.14355 5.14687,0.0391 1.7277,0.13166 3.34856,-0.12946 5.06209,-0.1093 1.71415,-0.15106 3.52818,0.16111 5.19073,-0.10094 1.25204,0.1116 3.63701,0.73012 2.92601,-1.43634 -0.0271,-1.56778 -0.0257,-3.23152 -0.0241,-4.711 0.14577,-1.40613 0.50262,-3.28373 -1.56194,-2.74735 -1.52185,-0.11398 -2.71238,0.0263 -4.22392,0.018 -2.09519,0.0587 -4.21644,-0.0129 -6.29382,0.0951 -1.53703,-0.75675 -0.58133,-3.05644 -0.83964,-4.47343 -0.0912,-1.62657 -0.0287,-3.12099 -0.0687,-4.67856 -0.15722,-1.73881 0.1704,-3.38211 -0.0197,-5.05234 0.14165,-0.9895 0.33305,-2.51161 -1.32252,-1.92775 -1.8928,-0.19403 -3.70965,-0.0362 -5.61572,-0.0216 -1.42256,0.29805 -4.74618,-1.01651 -3.91448,1.58817 0.22243,1.91941 -0.23348,3.93129 0.1316,5.85343 -0.12301,1.64278 0.12449,3.28241 0.0644,4.81014 -0.27169,1.52588 0.0999,3.09744 0.0351,4.69869 -0.34033,1.84657 -0.0401,3.7353 -0.14232,5.61125 -0.0745,1.2338 -0.44382,3.16271 1.45499,2.49619 1.38192,-0.14398 2.62364,0.22689 4.01511,0.0485 z"
       id="path4542"
       inkscape:connector-curvature="0" />
  </g>
</svg>
