<?xml version="1.0" encoding="UTF-8" standalone="no"?>
<!-- Created with Inkscape (http://www.inkscape.org/) -->

<svg
   xmlns:dc="http://purl.org/dc/elements/1.1/"
   xmlns:cc="http://creativecommons.org/ns#"
   xmlns:rdf="http://www.w3.org/1999/02/22-rdf-syntax-ns#"
   xmlns:svg="http://www.w3.org/2000/svg"
   xmlns="http://www.w3.org/2000/svg"
   xmlns:sodipodi="http://sodipodi.sourceforge.net/DTD/sodipodi-0.dtd"
   xmlns:inkscape="http://www.inkscape.org/namespaces/inkscape"
   width="66.267006mm"
   height="67.57431mm"
   viewBox="0 0 66.267005 67.574311"
   version="1.1"
   id="svg8"
   inkscape:version="0.92.4 (5da689c313, 2019-01-14)"
   sodipodi:docname="light.svg">
  <defs
     id="defs2" />
  <sodipodi:namedview
     id="base"
     pagecolor="#ffffff"
     bordercolor="#666666"
     borderopacity="1.0"
     inkscape:pageopacity="0.0"
     inkscape:pageshadow="2"
     inkscape:zoom="1.979899"
     inkscape:cx="-112.66864"
     inkscape:cy="-2.4453943"
     inkscape:document-units="mm"
     inkscape:current-layer="layer1"
     showgrid="false"
     inkscape:window-width="2120"
     inkscape:window-height="1408"
     inkscape:window-x="1352"
     inkscape:window-y="76"
     inkscape:window-maximized="0"
     showguides="false" />
  <metadata
     id="metadata5">
    <rdf:RDF>
      <cc:Work
         rdf:about="">
        <dc:format>image/svg+xml</dc:format>
        <dc:type
           rdf:resource="http://purl.org/dc/dcmitype/StillImage" />
        <dc:title />
      </cc:Work>
    </rdf:RDF>
  </metadata>
  <g
     inkscape:label="Layer 1"
     inkscape:groupmode="layer"
     id="layer1"
     transform="translate(-34.346994,277.48704)">
    <path
       style="fill:#242800;fill-opacity:1;stroke-width:0.07624108"
       d="m 70.481665,-276.44259 c -1.640705,0.17131 -3.124036,3.61916 -3.037538,4.68189 -0.05493,2.78003 -0.130564,7.01792 0.755507,9.81955 2.94368,1.30671 3.663124,-4.238 3.349151,-6.00221 0.353267,-2.16104 0.980953,-6.79982 -1.06712,-8.49923 z"
       id="path833"
       inkscape:connector-curvature="0" />
    <path
       id="path827"
       style="fill:#242800;fill-opacity:1;stroke-width:0.07624108"
       d="m 69.66621,-258.32121 c 0.148889,0.0101 0.347147,0.0461 0.548804,0.0667 0.202486,0.0207 0.409194,0.0264 0.578776,-0.0346 7.04e-4,-1.6e-4 0.0014,-3.3e-4 0.0021,-5.2e-4 -0.0089,0.004 0.0044,-0.002 0.02222,-5.2e-4 0.01778,0.002 0.04425,0.008 0.07855,0.0258 0.175683,0.0893 0.356201,0.14271 0.542086,0.14521 0.128482,0.002 0.234619,-0.0798 0.335897,-0.13332 0.198826,0.012 0.404061,0.11311 0.602549,0.21032 0.201604,0.0987 0.395533,0.19589 0.579807,0.1695 0.0012,-1.2e-4 0.0024,-3e-4 0.0036,-5.2e-4 0.0012,-2.8e-4 0.0024,-6.2e-4 0.0036,-0.001 7.4e-5,0 0.0018,-3.8e-4 0.0021,-5.2e-4 0.0044,4e-5 0.03151,-1.9e-4 0.06821,0.003 0.04043,0.004 0.09036,0.0124 0.135393,0.0248 0.04479,0.0124 0.09138,0.0313 0.12609,0.0481 0.01738,0.008 0.03176,0.0161 0.04237,0.0222 0.01064,0.006 0.02045,0.0133 0.01447,0.008 0.164652,0.15253 0.329271,0.16725 0.481107,0.1602 0.152228,-0.007 0.292878,-0.0296 0.445966,0.0393 3.28e-4,3.4e-4 6.61e-4,6.7e-4 0.001,10e-4 0.100084,0.039 0.149354,0.0592 0.172082,0.0687 0.009,0.004 0.01165,0.004 0.01292,0.005 0.007,0.008 0.0222,0.019 0.06201,0.0413 0.04069,0.0228 0.110876,0.0593 0.241329,0.12196 0.0037,0.002 0.0077,0.003 0.01189,0.004 0.122097,0.0211 0.158314,0.0375 0.19327,0.0548 0.03403,0.0168 0.07415,0.0386 0.171567,0.0682 0.189486,0.13181 0.387122,0.1964 0.628385,0.18655 0.02828,-0.001 0.04028,-0.001 0.04134,-0.001 0.0011,1.1e-4 -0.0016,-0.002 0.0098,0.004 0.009,0.004 0.06178,0.0394 0.147794,0.12454 0.08677,0.086 0.181726,0.16309 0.277502,0.22686 0.09358,0.0623 0.178073,0.11749 0.31781,0.14934 -0.0073,-0.002 -2.57e-4,-1.3e-4 0.0052,0.002 0.0056,0.002 0.01328,0.005 0.02222,0.009 0.01794,0.008 0.04169,0.0183 0.06615,0.03 0.04892,0.0232 0.103862,0.053 0.120922,0.0656 0.196715,0.1448 0.384739,0.27745 0.5364,0.37672 0.07587,0.0497 0.141613,0.0905 0.198957,0.1235 0.02858,0.0164 0.05635,0.0311 0.08526,0.045 0.01664,0.008 0.05648,0.0219 0.103354,0.0341 1.3e-4,-2e-5 -0.0057,0.002 -0.0057,0.002 2.65e-4,-2e-5 -0.0026,-9.3e-4 -0.0036,-0.001 -0.0039,-6.1e-4 -0.0035,-1.3e-4 -0.0072,-0.002 0.0047,0.002 0.02312,0.0135 0.04599,0.0258 0.04365,0.0234 0.102942,0.0568 0.159163,0.0925 0.07972,0.0507 0.161883,0.0939 0.239779,0.12867 0.0033,0.001 0.0068,0.002 0.01033,0.003 0.166042,0.0271 0.340699,0.14464 0.517282,0.30386 0.176609,0.15918 0.354968,0.35833 0.536919,0.54157 0.231492,0.23354 0.577353,0.57911 0.771012,0.77049 0.0795,0.0785 0.176265,0.19472 0.258381,0.30231 0.08212,0.10758 0.150027,0.21084 0.170016,0.25063 0.175646,0.34963 0.328906,0.55442 0.640271,0.87126 0.02397,0.0244 0.06725,0.0925 0.09973,0.14832 0.01627,0.0279 0.02961,0.0527 0.03979,0.0708 0.0051,0.009 0.0096,0.0168 0.01292,0.0222 7.93e-4,0.001 0.0015,0.003 0.0026,0.005 0.05429,0.22124 0.198929,0.41529 0.393258,0.53072 0.0028,0.002 0.03367,0.0282 0.05839,0.0584 0.02479,0.0302 0.04812,0.0665 0.05581,0.0873 0.08671,0.2349 0.23994,0.42034 0.419095,0.57981 0.163989,0.146 0.330888,0.49077 0.351401,0.79168 8e-5,0.004 6.18e-4,0.007 0.0016,0.0109 0.186766,0.58504 0.269356,0.70002 0.37207,0.93379 0.0091,0.0482 0.02111,0.0895 0.03565,0.12713 0.0346,0.0894 0.08119,0.17592 0.139528,0.2651 0.01682,0.0257 0.04706,0.10478 0.06976,0.17931 0.01138,0.0373 0.02244,0.0748 0.02946,0.10543 0.007,0.0307 0.0098,0.0576 0.0098,0.0641 3.6e-4,0.002 8.61e-4,0.004 0.0015,0.006 0.04971,0.32072 0.08056,0.40946 0.105421,0.46457 0.0249,0.0551 0.03658,0.0621 0.06253,0.25477 5.46e-4,0.003 0.0014,0.006 0.0026,0.009 0.180237,0.53023 0.181255,0.6445 0.299204,0.96221 0.01818,0.0489 0.04316,0.0865 0.05168,0.11937 0.0418,0.16139 -0.0067,0.37521 0.05581,0.55139 -1.5e-5,6.7e-4 -1.5e-5,0.001 0,0.002 0.03752,0.0911 0.04925,0.26348 0.04961,0.42013 2.09e-4,0.0784 -0.0013,0.15354 -0.0026,0.21445 -0.0013,0.0609 -0.0027,0.10313 0.0026,0.13488 -0.03004,0.1704 -0.0099,0.30198 0.01499,0.41806 0.02569,0.11987 0.05213,0.22388 0.03101,0.36122 -5.71e-4,0.003 -9.06e-4,0.005 -0.001,0.008 0.0011,0.0912 0.01431,0.1835 0.04186,0.27802 0.0011,0.004 0.0013,0.008 0.0026,0.0124 9.3e-5,8e-4 -2.22e-4,0.001 0,0.002 3.28e-4,3.4e-4 6.61e-4,6.7e-4 10e-4,0.001 0.0011,0.009 0.0013,0.022 0.0031,0.0382 0.0037,0.0334 0.0079,0.0799 0.0083,0.12661 0.0011,0.0957 -0.0057,0.2091 -0.0186,0.30231 -3.06e-4,0.002 -4.79e-4,0.004 -5.18e-4,0.006 -0.0049,0.23643 -0.02561,0.41503 -0.08682,0.6196 7.8e-5,0.002 2.5e-4,0.003 5.16e-4,0.005 -0.01897,0.10195 -0.02677,0.2095 -0.02326,0.32504 0.0071,0.23227 -0.0047,0.44528 -0.02325,0.61133 -0.01855,0.16607 -0.04702,0.2906 -0.06149,0.32402 -0.05988,0.13831 -0.101825,0.27035 -0.112139,0.43511 -8.7e-5,-2e-5 -0.0021,-0.001 -0.0021,-0.001 -3.7e-5,1e-4 -5.05e-4,0.003 -10e-4,0.004 -7.93e-4,0.003 -5.3e-5,0.004 -5.16e-4,0.006 -0.0016,0.007 -0.0034,0.0171 -0.0057,0.0305 -0.0047,0.0267 -0.01215,0.0666 -0.0217,0.10439 -3.38e-4,3.3e-4 -6.72e-4,6.6e-4 -0.001,0.001 -0.08291,0.40266 -0.1914,0.73966 -0.327112,1.09193 -4.1e-4,0.003 -5.82e-4,0.005 -5.16e-4,0.008 -0.02543,0.13782 -0.0148,0.26755 0.0093,0.39946 0.01143,0.0624 0.01664,0.0934 0.01757,0.10646 0.0011,0.0131 0.0022,0.004 -0.0026,0.0176 -1.38e-4,5.2e-4 -0.01551,0.032 -0.04599,0.0806 -0.03048,0.0486 -0.07694,0.11903 -0.143661,0.21084 -0.120407,0.1657 -0.205245,0.29045 -0.266652,0.42685 -0.05661,0.12568 -0.07827,0.27547 -0.05943,0.41186 -0.0013,0.002 -0.0026,0.004 -0.0031,0.006 -0.0011,0.002 -0.003,0.004 -0.0036,0.006 -0.0011,0.004 -0.0018,0.005 -0.0026,0.008 -0.0019,0.006 -0.0045,0.0122 -0.0062,0.0191 -0.0075,0.0272 -0.01826,0.0661 -0.03928,0.0956 -0.118176,0.16593 -0.216143,0.34767 -0.267166,0.54829 -0.04029,0.15851 -0.09285,0.3056 -0.135908,0.39842 -0.01659,0.0357 -0.02782,0.0541 -0.03617,0.0677 -0.0674,0.0458 -0.105945,0.0994 -0.129191,0.13539 -0.03611,0.0565 -0.05752,0.10685 -0.07338,0.15554 -0.03151,0.0969 -0.04753,0.1974 -0.05168,0.30386 -0.0021,0.0539 -0.0037,0.0802 -0.0052,0.0904 -0.0013,0.0102 0.0011,-2.6e-4 -0.0052,0.0109 -1.06e-4,1.7e-4 -0.01677,0.0236 -0.04806,0.0589 -0.03158,0.035 -0.07866,0.0842 -0.146762,0.14883 -3.35e-4,1.7e-4 -6.69e-4,3.4e-4 -10e-4,5.1e-4 -0.142353,0.13434 -0.24366,0.22597 -0.326593,0.36277 -0.08649,0.14305 -0.106328,0.32179 -0.09612,0.44597 2.64e-4,0.003 5.16e-4,0.005 5.16e-4,0.007 -0.0058,0.007 -0.0141,0.0157 -0.02532,0.0284 -0.02439,0.0276 -0.06143,0.0688 -0.114723,0.11937 -0.262718,0.24976 -0.444074,0.43391 -0.575159,0.59945 -0.0026,0.004 -0.0047,0.008 -0.0062,0.0119 -0.106249,0.29642 -0.229855,0.417 -0.437185,0.56276 -0.247004,0.17362 -0.46269,0.40076 -0.63872,0.66094 -0.116477,0.17234 -0.344564,0.41335 -0.635103,0.65216 -0.13652,0.11223 -0.260289,0.22125 -0.356568,0.30954 -3.38e-4,3.3e-4 -6.72e-4,6.6e-4 -10e-4,10e-4 -0.100592,0.0985 -0.150725,0.15218 -0.177768,0.185 -0.02698,0.0329 -0.03704,0.0536 -0.03411,0.0491 0.0059,-0.009 -0.01529,0.007 -0.263033,0.18448 l 0.0021,-5.1e-4 c -0.210918,0.14143 -0.420026,0.28975 -0.553455,0.41754 -0.0039,0.002 -0.009,0.005 -0.01602,0.008 -0.01352,0.007 -0.03213,0.015 -0.04857,0.0232 -0.01625,0.008 -0.03022,0.0159 -0.04186,0.0227 -0.0028,0.002 -0.0063,0.003 -0.0093,0.005 -0.0011,7.9e-4 -0.0029,0.001 -0.0041,0.003 -5.29e-4,9e-5 -0.001,0.001 -0.0016,0.001 -0.140755,0.0245 -0.225057,0.0741 -0.316261,0.12816 -0.101076,0.06 -0.20252,0.13405 -0.297138,0.216 -0.05824,0.0504 -0.148873,0.11464 -0.230479,0.16898 -0.08154,0.0544 -0.160308,0.10178 -0.179832,0.11059 -0.179855,0.0812 -0.386995,0.21221 -0.553455,0.34158 -0.07861,0.0612 -0.335648,0.19821 -0.40721,0.22066 -0.102232,0.0321 -0.200818,0.0716 -0.291457,0.11937 -0.08738,0.0461 -0.16864,0.0881 -0.262514,0.19379 -0.03323,0.0373 -0.04807,0.044 -0.06253,0.0532 -0.01614,-0.006 -0.0332,-0.012 -0.05271,-0.0207 -0.02647,-0.0118 -0.0538,-0.0242 -0.08888,-0.0238 -0.09531,0.001 -0.17834,0.0211 -0.255281,0.0496 -0.006,0.002 -0.01144,0.006 -0.01602,0.0103 -0.212006,0.20756 -0.391909,0.27403 -0.596345,0.3266 -0.201059,0.0517 -0.426154,0.0887 -0.706935,0.22376 -0.0083,-5.3e-4 -0.03605,-0.003 -0.05839,-0.0103 -0.110604,-0.0342 -0.242094,-0.063 -0.392224,-0.0295 -0.143534,0.032 -0.25405,0.12083 -0.333314,0.20568 -0.0011,-10e-6 -0.03944,0.006 -0.128675,-0.006 -0.002,-4.8e-4 -0.0041,-8.1e-4 -0.0062,-10e-4 -0.314124,-8e-4 -0.436602,0.0266 -0.5364,0.0651 -0.09911,0.0383 -0.168984,0.0824 -0.402558,0.12299 l -0.0031,0.001 c -0.116599,0.0126 -0.226621,0.0267 -0.317294,0.0434 -0.04577,0.008 -0.08669,0.0167 -0.12764,0.0279 -0.01683,0.005 -0.03272,0.0111 -0.05013,0.0176 -0.02249,-0.001 -0.0516,-0.005 -0.08526,-0.0114 -0.236651,-0.0431 -0.478491,-0.0109 -0.715719,0.0413 -0.07257,0.016 -0.161663,0.0268 -0.234095,0.031 -0.03382,0.002 -0.06965,-0.001 -0.0925,-0.003 -0.006,-7.9e-4 -0.01089,0 -0.01499,0 -0.0043,-1.5e-4 -0.01407,-10e-5 -0.0155,0 -6.4e-5,2e-5 -0.001,1.1e-4 -0.0021,0 -0.07755,-0.0197 -0.155454,-0.0291 -0.235646,-0.0238 -0.0086,2.7e-4 -0.01708,0.003 -0.02429,0.008 -0.02336,0.0176 -0.08277,0.0385 -0.156581,0.0527 -0.07381,0.0142 -0.162689,0.0235 -0.249597,0.0284 -0.07035,0.004 -0.134898,0.003 -0.195337,0.002 1.101305,-13.12851 0.545516,-18.4923 0.978234,-29.06282 0.0044,-0.002 0.0085,-0.003 0.01292,-0.005 z m -1.091922,-2.12442 c -1.035595,0.0145 -1.716434,0.13151 -2.639115,0.24753 -8.71e-4,1.5e-4 -0.0017,3.2e-4 -0.0026,5.2e-4 -0.03754,0.006 -0.0755,0.0133 -0.113171,0.0233 -0.0023,8.2e-4 -0.0045,0.002 -0.0067,0.003 -0.17434,0.0803 -0.179425,0.0843 -0.235128,0.11678 l -0.0036,0.001 c -0.07669,0.037 -0.153397,0.0732 -0.230994,0.10232 -0.210106,0.0788 -0.291293,0.0941 -0.443383,0.13281 -0.152094,0.0387 -0.371753,0.10014 -0.851628,0.26975 -0.0045,0.002 -0.0086,0.004 -0.0124,0.007 -0.0345,0.0271 -0.05994,0.0444 -0.09043,0.0672 -0.256095,0.10488 -0.501295,0.22395 -0.731739,0.36071 -1.885739,0.92441 -3.897876,1.42907 -5.406388,2.97139 -1.537118,1.72625 -3.345961,3.46432 -4.218864,5.58416 -0.876005,2.38852 -1.578373,4.97916 -1.227316,7.46414 0.1742,2.77793 0.922053,5.74251 2.651518,7.98091 1.249233,2.45403 3.401838,4.2592 5.677173,5.67045 0.565246,0.32014 1.291463,0.60787 2.088761,0.86506 7.94e-4,2.7e-4 0.0015,7.7e-4 0.0021,10e-4 2.64e-4,2.3e-4 0.001,5e-4 0.0015,0.001 7.94e-4,5.3e-4 9.98e-4,0.001 0.0026,0.002 0.05193,0.0501 0.115671,0.11232 0.176734,0.14831 0.0012,3.8e-4 0.0024,7.2e-4 0.0036,10e-4 0.08116,0.0387 0.165354,0.0635 0.257865,0.076 0.0011,-5e-5 0.01794,0.004 0.03514,0.0114 0.01725,0.007 0.0369,0.0161 0.05426,0.0238 0.01728,0.008 0.02896,0.0136 0.04702,0.0176 0.0021,2.6e-4 0.0043,0.002 0.0083,0.003 0.0021,2.6e-4 0.0072,-2.5e-4 0.0072,-5.2e-4 2.61e-4,-1e-5 0.0102,-0.002 0.01033,-0.002 6.1e-5,-1e-5 0.0024,-0.002 0.0047,-0.003 0.271184,0.0511 0.488193,0.14919 0.710549,0.24857 0.229618,0.10263 0.467791,0.20383 0.781349,0.24236 0.143814,0.1132 0.31115,0.1634 0.481107,0.15762 0.02529,-8e-4 0.113877,0.004 0.214456,0.0134 0.100578,0.01 0.216024,0.0247 0.302307,0.0408 0.109974,0.0206 0.223097,0.0353 0.322461,0.047 0.09802,0.0116 0.16823,0.0215 0.272336,0.014 0.04188,-0.003 0.124799,0.0145 0.19327,0.0351 0.03425,0.0103 0.06643,0.0218 0.0894,0.0305 0.01151,0.004 0.02058,0.008 0.02687,0.0109 0.0024,0.001 0.0037,0.001 0.0052,0.002 2.64e-4,1.8e-4 0.001,5.2e-4 0.001,5.2e-4 3.28e-4,3.4e-4 6.61e-4,6.7e-4 10e-4,0.001 0.267009,0.15518 0.521597,0.13538 0.763262,0.0786 0.166351,0.0652 0.332063,0.0994 0.520898,0.0884 0.05511,-0.003 0.265007,-5.2e-4 0.409279,0.008 0.0063,10e-4 0.01388,0.003 0.02015,0.004 9.8e-5,-0.001 5.16e-4,-0.002 5.16e-4,-0.003 5.29e-4,4e-5 0.001,-4e-5 0.0016,0 0.0016,8e-5 0.0031,8e-5 0.0047,0 0.277133,-0.006 0.423826,-0.0318 0.54932,-0.0455 0.125495,-0.0137 0.2305,-0.0154 0.442349,0.0258 0.0027,4.3e-4 0.0055,6.1e-4 0.0083,5.2e-4 0.108434,-1.5e-4 0.217837,-0.0185 0.329179,-0.0594 0.01609,-0.006 0.08119,-0.0123 0.128672,-0.016 0.02373,-0.002 0.04155,-0.004 0.0584,-0.008 0.0027,-5.3e-4 0.007,-4.8e-4 0.01033,-0.002 0.147314,0.0353 0.288599,0.0556 0.430982,0.0419 0.118769,-0.0114 0.224885,-0.0806 0.322461,-0.14935 0.09143,0.0223 0.175027,0.0311 0.251664,0.0222 0.09959,-0.0116 0.200369,-0.034 0.301789,-0.0724 5.29e-4,-1.5e-4 0.0218,-0.005 0.04496,-0.007 0.0231,-0.002 0.04995,-0.003 0.07596,-0.003 0.02601,-5.3e-4 0.05063,-0.001 0.06822,-0.001 0.0079,-2.1e-4 0.01339,5.2e-4 0.01963,0 7.94e-4,-7e-5 0.0015,-1e-4 0.0026,0 0.227989,0.0807 0.4577,0.0737 0.684196,-0.047 5.4e-4,-3.2e-4 0.0011,-6.6e-4 0.0016,-0.001 -0.0016,7.9e-4 0.01511,-0.006 0.03307,-0.0109 0.01828,-0.004 0.04046,-0.008 0.06046,-0.0124 0.02,-0.004 0.03676,-0.009 0.05064,-0.0129 0.0033,-0.001 0.0067,-0.001 0.01137,-0.003 7.94e-4,-2.6e-4 0.0021,-5.1e-4 0.0036,-5.1e-4 0.240212,0.0174 0.400849,-0.0606 0.564824,-0.17984 0.0074,-0.002 0.01616,-0.005 0.02739,-0.009 0.02246,-0.008 0.05537,-0.0208 0.09198,-0.0336 0.07336,-0.0254 0.165069,-0.0533 0.220142,-0.0589 0.13504,-0.0137 0.256365,-0.0347 0.375171,-0.0822 0.06549,-0.0262 0.102843,-0.0801 0.137975,-0.11214 0.130648,0.0427 0.255299,0.047 0.368969,0.0289 0.153525,-0.0245 0.317556,-0.0671 0.470773,-0.21445 9.5e-5,4e-5 0.0016,0.001 0.0016,0.001 6.6e-5,-1.5e-4 -0.0037,0.006 -0.0036,0.006 0.0021,-0.002 0.0052,-0.003 0.0047,-0.003 0.02069,-0.0109 0.05726,-0.0308 0.101801,-0.0512 0.08981,-0.0412 0.213384,-0.0933 0.341064,-0.14159 0.27568,-0.10439 0.592894,-0.22981 0.741042,-0.29559 0.04372,-0.0194 0.09834,-0.0378 0.13539,-0.0481 0.0077,-0.002 0.03062,-0.002 0.03566,-5.2e-4 l 0.0026,-5.2e-4 c 0,0 -2.25e-4,-0.005 -5.16e-4,-0.007 0.113553,0.002 0.180776,-0.0381 0.21704,-0.0574 0.05338,-0.0284 0.09447,-0.0602 0.133326,-0.092 0.07821,-0.0641 0.150188,-0.13851 0.22066,-0.22634 0.0364,-0.046 0.08644,-0.0956 0.117822,-0.12092 0.0021,-0.002 0.0083,-0.005 0.01292,-0.007 -2.64e-4,-1e-5 -0.0015,-10e-4 -0.0015,-10e-4 0.0013,-2.6e-4 0.0032,-1.6e-4 0.0046,-5.1e-4 5.3e-4,-1.2e-4 0.0023,1.3e-4 0.0026,0 0.132258,-0.0234 0.231019,-0.0793 0.326078,-0.17312 2.65e-4,2.7e-4 0.0026,0.002 0.0026,0.002 0.0024,-0.002 0.01667,-0.0129 0.02687,-0.016 0.04183,-0.0133 0.10908,-0.0261 0.165881,-0.0315 0.121989,-0.0116 0.237723,-0.0367 0.345715,-0.078 0.09546,-0.0366 0.204094,-0.0781 0.306443,-0.2098 0.0016,-7.9e-4 0.003,-0.002 0.0046,-0.003 0.01466,-0.008 0.02485,-0.0153 0.03824,-0.0258 0.01357,-0.0103 0.02827,-0.0215 0.04031,-0.0305 0.0061,-0.004 0.01098,-0.009 0.01447,-0.0114 l 0.001,-0.001 c 0.172585,-0.0638 0.308134,-0.14616 0.434084,-0.31161 0.0026,-0.002 0.0057,-0.003 0.0078,-0.004 0.0029,-0.002 0.0047,-0.004 0.0078,-0.006 0.01185,-0.01 0.02909,-0.0238 0.04806,-0.0393 0.0383,-0.0307 0.08835,-0.0696 0.105937,-0.0786 0.0033,-0.001 0.0064,-0.003 0.0093,-0.005 0.519192,-0.45441 1.14995,-0.75214 1.591632,-1.28055 0.09589,-0.11545 0.192818,-0.21951 0.264068,-0.28732 0.02832,-0.0269 0.0475,-0.042 0.06356,-0.0542 0.04,-0.0109 0.08223,-0.0264 0.135909,-0.061 3.38e-4,-3.3e-4 6.72e-4,-6.6e-4 10e-4,-0.001 0.02595,-0.0168 0.03632,-0.0358 0.04961,-0.0558 0.0118,-0.017 0.02336,-0.0323 0.03256,-0.0439 0.04331,-0.0229 0.08521,-0.0476 0.117822,-0.0744 0.04285,-0.0351 0.0828,-0.0731 0.127124,-0.11679 0.08872,-0.0874 0.189307,-0.19619 0.298175,-0.32142 0.217778,-0.25025 0.466791,-0.56226 0.677995,-0.85783 0.233545,-0.32744 0.382042,-0.5079 0.62425,-0.75706 0.119724,-0.12366 0.243041,-0.28746 0.360185,-0.45682 0.105174,-0.15216 0.191413,-0.28203 0.25528,-0.43253 2.07e-4,-5.3e-4 7.7e-4,-7.7e-4 0.001,-0.001 0.0016,-0.002 0.0075,-0.006 0.0078,-0.006 2.07e-4,-2.6e-4 0.0024,-0.003 0.0031,-0.004 0.0027,-0.004 0.004,-0.008 0.0062,-0.0124 0.0089,-0.015 0.02337,-0.0405 0.03876,-0.0605 0.03458,-0.0452 0.08483,-0.10261 0.130741,-0.14934 0.08665,-0.0889 0.160695,-0.17527 0.217557,-0.28681 0.04639,-0.0918 0.07407,-0.21425 0.05943,-0.33641 -3.7e-5,-2.7e-4 10e-4,-0.001 10e-4,-0.001 5.6e-5,-2.6e-4 2.2e-4,-10e-4 0.001,-0.004 0.01363,-0.0343 0.04855,-0.10047 0.09509,-0.16743 0.142216,-0.20494 0.263893,-0.4121 0.299207,-0.67903 0.02815,-0.21291 0.20974,-0.57809 0.553971,-0.95446 0.09072,-0.0997 0.18564,-0.22378 0.224793,-0.38448 0.03792,-0.15548 0.01912,-0.29249 -0.0062,-0.43253 l 0.001,-0.004 c 0.0063,-0.25143 0.03203,-0.34836 0.07648,-0.41393 0.04478,-0.066 0.121512,-0.11434 0.226343,-0.25218 0.0015,-0.002 0.0029,-0.003 0.0041,-0.005 0.04534,-0.0788 0.07199,-0.15528 0.09302,-0.23357 0.0018,-0.006 0.0023,-0.0124 0.0015,-0.0186 -0.03801,-0.24567 0.006,-0.30591 0.06667,-0.43408 0.06061,-0.1282 0.133482,-0.31172 0.134874,-0.74724 l 0.001,0.003 c 0.0092,-0.10668 0.01103,-0.16941 0.01137,-0.20722 2.65e-4,-0.0378 -0.001,-0.053 -0.001,-0.0517 -1.14e-4,0.003 0.0095,-0.008 0.06925,-0.16846 0.0029,-0.007 0.0041,-0.014 0.0036,-0.0212 -0.01095,-0.0919 -0.0024,-0.14827 0.01705,-0.20826 0.01937,-0.06 0.05012,-0.1239 0.0832,-0.21549 8.86e-4,-0.002 0.0016,-0.005 0.0021,-0.007 0.01339,-0.0703 0.02294,-0.1443 0.02894,-0.22635 0.01207,-0.16431 0.01364,-0.36208 0.0047,-0.56896 -0.008,-0.1823 -0.0075,-0.35888 -10e-4,-0.48472 0.01103,-0.21192 0.03123,-0.32151 0.05219,-0.44493 0.02093,-0.12343 0.04306,-0.2608 0.0615,-0.52039 0.01032,-0.2096 0.01297,-0.46801 0.0072,-0.73225 -0.0057,-0.2643 -0.01926,-0.53328 -0.03876,-0.76016 0.07963,-0.67871 0.01368,-1.0728 -0.122475,-1.57665 -0.04481,-0.16584 -0.162269,-0.28757 -0.204637,-0.42323 -0.03263,-0.10449 -0.02993,-0.24259 -0.05581,-0.3545 -0.0013,-0.005 -0.0036,-0.0101 -0.0067,-0.0145 -0.119467,-0.18688 -0.145878,-0.28777 -0.153479,-0.36638 -0.0075,-0.0776 0.0061,-0.14622 -0.02326,-0.25064 l -10e-4,-0.003 c -0.07057,-0.34597 -0.09719,-0.44606 -0.112654,-0.51159 -0.01561,-0.066 -0.01974,-0.10237 -0.05064,-0.34107 -1.57e-4,-6.7e-4 -3.3e-4,-0.001 -5.18e-4,-0.002 -0.02096,-0.12363 -0.03351,-0.26032 -0.07906,-0.3824 -0.0012,-0.003 -0.0028,-0.006 -0.0047,-0.009 -0.111136,-0.17134 -0.165048,-0.22378 -0.197406,-0.26614 -0.03217,-0.0421 -0.04999,-0.0813 -0.101801,-0.24494 v -0.002 c -0.03007,-0.12275 -0.07088,-0.24103 -0.115755,-0.34572 -10e-4,-0.002 -0.0022,-0.004 -0.0036,-0.006 -0.238268,-0.37972 -0.30421,-0.83152 -0.494544,-1.19114 l -0.0041,-0.01 c -0.01516,-0.0521 -0.03364,-0.0952 -0.05374,-0.13642 -0.04361,-0.0894 -0.09967,-0.18263 -0.168984,-0.28061 -0.04543,-0.0642 -0.09913,-0.16433 -0.140042,-0.24804 -0.02048,-0.0419 -0.03773,-0.0789 -0.05013,-0.10646 -0.0062,-0.0138 -0.01214,-0.0258 -0.0155,-0.0336 -5.3e-4,-0.002 -0.0018,-0.003 -0.0026,-0.005 -5.3e-4,-0.002 -0.001,-0.004 -0.0015,-0.006 -0.06556,-0.28512 -0.23458,-0.5401 -0.417547,-0.8046 -0.09278,-0.13412 -0.190815,-0.25972 -0.285255,-0.36587 -0.0869,-0.0977 -0.148371,-0.19027 -0.321943,-0.26148 -0.0011,-0.001 -0.0015,-0.003 -0.0026,-0.005 -0.0086,-0.009 -0.01905,-0.0187 -0.03152,-0.03 -0.025,-0.0226 -0.05612,-0.056 -0.05943,-0.062 -0.04095,-0.0747 -0.08771,-0.14119 -0.140041,-0.20154 -0.0011,-0.001 -0.0023,-0.002 -0.0036,-0.003 -0.102822,-0.0911 -0.168354,-0.22309 -0.234093,-0.36019 -0.06575,-0.13709 -0.131249,-0.27907 -0.243395,-0.38447 -0.19912,-0.19392 -0.230979,-0.23382 -0.391192,-0.35605 l -0.001,-10e-4 -0.0026,-0.002 c -0.141097,-0.14138 -0.298894,-0.39847 -0.506428,-0.57103 -0.07566,-0.0616 -0.338998,-0.268 -0.613918,-0.4811 -0.26778,-0.20756 -0.710457,-0.56455 -0.968415,-0.78239 -0.13879,-0.11723 -0.275836,-0.22434 -0.391192,-0.30747 -0.502658,-0.35596 -0.730702,-0.46799 -1.132231,-0.68885 -0.07832,-0.0683 -0.161629,-0.12245 -0.249079,-0.16433 -0.07234,-0.0347 -0.157072,-0.0664 -0.276468,-0.0703 5.8e-5,-0.001 0.001,-0.008 0.001,-0.008 -0.0021,-2.1e-4 -0.01732,-0.003 -0.02584,-0.007 -0.03163,-0.0161 -0.08039,-0.0469 -0.110072,-0.0734 -0.309639,-0.2764 -0.623678,-0.42882 -1.205095,-0.5948 -0.108651,-0.031 -0.235445,-0.0794 -0.337963,-0.12712 -0.05033,-0.0234 -0.09668,-0.0498 -0.131257,-0.0703 -0.01728,-0.0102 -0.0312,-0.0188 -0.04082,-0.0248 -0.0042,-0.003 -0.0079,-0.003 -0.01034,-0.005 -5.29e-4,-3.7e-4 -0.001,-5.8e-4 -0.0015,-10e-4 -0.0013,-9.3e-4 -0.0029,-0.003 -0.0036,-0.003 -2.65e-4,-1.9e-4 -0.0026,-0.002 -0.0026,-0.002 l -0.001,-0.001 -0.0031,5.2e-4 c -0.13901,-0.12325 -0.297797,-0.21594 -0.453203,-0.28112 -0.07908,-0.0332 -0.155654,-0.0599 -0.245977,-0.0749 -0.0012,-3.8e-4 -0.0024,-7.2e-4 -0.0036,-0.001 -0.343109,-0.0238 -0.469861,-0.0658 -0.57671,-0.11317 -0.106847,-0.0474 -0.201671,-0.10384 -0.451652,-0.14676 -0.0023,-8.7e-4 -0.0047,-0.002 -0.0072,-0.002 -0.204073,-4.5e-4 -0.326578,-10e-4 -0.408244,-0.009 -0.08164,-0.007 -0.120507,-0.0179 -0.173114,-0.0429 -0.002,-10e-4 -0.0041,-0.002 -0.0062,-0.003 -0.04673,-0.0138 -0.09088,-0.0211 -0.136427,-0.0284 -0.09153,-0.0145 -0.194207,-0.025 -0.300755,-0.0258 l -0.0021,5.1e-4 c -0.148571,-0.008 -0.203602,-0.024 -0.257865,-0.0475 -0.05465,-0.0236 -0.113358,-0.0582 -0.25063,-0.0987 -0.0015,-7.6e-4 -0.0031,-0.001 -0.0047,-0.002 -0.09931,-0.0191 -0.20374,-0.0258 -0.313158,-0.0145 0.0063,-8.7e-4 -5.43e-4,-2.3e-4 -0.0083,-0.001 -0.0073,-4.8e-4 -0.0186,-0.002 -0.03101,-0.004 -0.02487,-0.003 -0.05745,-0.008 -0.09095,-0.0145 -0.06706,-0.0126 -0.143084,-0.0322 -0.165881,-0.0434 -0.229386,-0.11269 -0.492225,-0.15832 -0.746726,-0.0703 0.0031,-10e-4 -0.0085,0.002 -0.02274,0.004 -0.01442,0.001 -0.03365,0.002 -0.05891,0.003 -0.05047,0.002 -0.120547,9e-4 -0.210326,-0.003 -0.179551,-0.009 -0.436239,-0.0341 -0.758092,-0.0915 -0.0015,-7.6e-4 -0.0031,-10e-4 -0.0047,-0.002 -0.446072,-0.0218 -0.830956,-0.0286 -1.176155,-0.0238 z" />
    <path
       style="fill:#242800;fill-opacity:1;stroke-width:0.07624108"
       d="m 43.37438,-246.53763 c -2.359205,-0.002 -4.898864,0.28387 -7.061067,0.53898 -4.492661,1.04685 0.896666,4.51076 2.498038,3.91552 2.734556,0.11498 7.041361,0.005 9.855213,-0.0698 1.776423,-0.84749 1.799646,-1.68826 1.124995,-2.39727 -0.986102,-1.03625 -3.463273,-1.79186 -4.138765,-1.87792 -0.725667,-0.0765 -1.492012,-0.10885 -2.278414,-0.10955 z"
       id="path825"
       inkscape:connector-curvature="0" />
    <path
       style="fill:#242800;fill-opacity:1;stroke-width:0.08547373"
       d="m 54.567683,-229.94822 c -1.5968,0.10229 -3.883372,1.31193 -4.450313,1.74635 -2.548925,2.04253 -5.068353,5.16351 -7.097,7.71119 -2.757929,4.38655 4.234891,2.92712 5.044541,1.18464 2.265904,-2.06397 5.607513,-5.54913 7.788517,-7.82836 0.751981,-2.08379 0.11416,-2.77951 -0.976252,-2.81868 -0.09962,-0.004 -0.203043,-0.002 -0.309479,0.005 z"
       id="path823"
       inkscape:connector-curvature="0" />
    <path
       style="fill:#242800;fill-opacity:1;stroke-width:0.07624108"
       d="m 68.29472,-225.39041 c -0.04414,-8.7e-4 -0.08842,9.9e-4 -0.132292,0.006 -0.467979,0.0501 -0.916569,0.42571 -1.262456,1.3038 -0.557991,2.27595 -0.812583,5.60111 -0.729152,7.93594 0.06144,0.96385 1.939996,9.93349 4.023526,2.68821 0.288526,-2.23861 0.316918,-6.18354 0.410827,-8.37158 0.518893,-0.89885 -0.942197,-3.5348 -2.310453,-3.56206 z"
       id="path2032"
       inkscape:connector-curvature="0" />
    <path
       style="fill:#242800;fill-opacity:1;stroke-width:0.08100544"
       d="m 54.490473,-257.45627 c -1.405233,-0.0235 -3.46378,-1.14306 -3.980041,-1.55802 -2.324959,-1.95692 -4.671004,-5.01681 -6.561552,-7.51604 -2.610374,-4.34039 3.587562,-3.20431 4.373694,-1.46567 2.077616,1.99316 5.160769,5.38332 7.173282,7.60064 0.750404,2.09017 0.221177,2.83308 -0.733672,2.92837 -0.08722,0.009 -0.178029,0.0123 -0.271711,0.0104 z"
       id="path823-1"
       inkscape:connector-curvature="0" />
  </g>
</svg>
