<?xml version="1.0" encoding="UTF-8" standalone="no"?>
<!-- Created with Inkscape (http://www.inkscape.org/) -->

<svg
   xmlns:dc="http://purl.org/dc/elements/1.1/"
   xmlns:cc="http://creativecommons.org/ns#"
   xmlns:rdf="http://www.w3.org/1999/02/22-rdf-syntax-ns#"
   xmlns:svg="http://www.w3.org/2000/svg"
   xmlns="http://www.w3.org/2000/svg"
   xmlns:sodipodi="http://sodipodi.sourceforge.net/DTD/sodipodi-0.dtd"
   xmlns:inkscape="http://www.inkscape.org/namespaces/inkscape"
   width="134.59166mm"
   height="103.87321mm"
   viewBox="0 0 134.59166 103.87321"
   version="1.1"
   id="svg8"
   sodipodi:docname="redo.svg"
   inkscape:version="0.92.4 (5da689c313, 2019-01-14)">
  <defs
     id="defs2" />
  <sodipodi:namedview
     id="base"
     pagecolor="#ffffff"
     bordercolor="#666666"
     borderopacity="1.0"
     inkscape:pageopacity="0.0"
     inkscape:pageshadow="2"
     inkscape:zoom="0.98994949"
     inkscape:cx="544.25964"
     inkscape:cy="244.90811"
     inkscape:document-units="mm"
     inkscape:current-layer="layer1"
     showgrid="false"
     inkscape:window-width="1907"
     inkscape:window-height="1114"
     inkscape:window-x="1682"
     inkscape:window-y="235"
     inkscape:window-maximized="0" />
  <metadata
     id="metadata5">
    <rdf:RDF>
      <cc:Work
         rdf:about="">
        <dc:format>image/svg+xml</dc:format>
        <dc:type
           rdf:resource="http://purl.org/dc/dcmitype/StillImage" />
        <dc:title></dc:title>
      </cc:Work>
    </rdf:RDF>
  </metadata>
  <g
     inkscape:label="Layer 1"
     inkscape:groupmode="layer"
     id="layer1"
     transform="translate(-67.518399,-100.69939)">
    <path
       style="fill:#242800;fill-opacity:1;stroke-width:0.26458332"
       d="m 201.95832,168.35173 c -0.69133,-2.51311 -1.93326,-3.78741 -5.14005,-5.27408 -3.22366,-1.49446 -10.68923,-7.45936 -20.3593,-16.26681 -7.13894,-7.51262 -17.20144,-1.53776 -8.26376,7.00837 2.53,2.37646 6.65034,6.02458 9.15631,8.10695 2.50597,2.08237 4.7111,3.9189 4.9003,4.08121 0.26287,0.2255 -0.48212,0.4799 -3.15889,1.07874 -1.92658,0.431 -6.88419,1.59226 -11.01692,2.58057 -19.02059,4.54867 -22.90573,6.1459 -31.51768,6.85534 -14.85883,1.22405 -34.15119,-1.7938 -43.991685,-8.07953 -3.39577,-2.16909 -5.06762,-3.61691 -7.30164,-6.32325 -2.78095,-3.36891 -4.42753,-6.80088 -5.51199,-11.48863 -5.1874,-33.58329 21.114715,-38.33894 34.083095,-39.15764 10.38482,-0.15872 19.21996,1.08609 27.24425,3.83853 2.35398,0.80744 3.26373,0.99985 4.24457,0.89773 2.70758,-0.28191 4.4017,-2.42676 4.35453,-5.51306 -0.0516,-3.37918 -1.43794,-4.39189 -9.09846,-6.64655 -5.0698,-1.49215 -10.13855,-2.47131 -16.05656,-3.10174 -4.60714,-0.49079 -16.20948,-0.35215 -24.33142,1.31056 -35.647685,7.2977 -37.000305,39.87839 -27.996955,61.47248 10.26481,18.14064 34.284055,23.16542 53.980425,24.2555 13.03681,0.72151 17.32546,-1.32536 40.54275,-6.54033 6.91729,-1.55373 12.6662,-2.82633 12.77533,-2.828 0.10913,-0.002 -1.03014,1.29581 -2.53172,2.88329 -3.19437,3.37712 -4.39374,4.8491 -6.85735,8.41606 -3.37803,4.89087 -4.3076,6.68875 -4.42951,8.56706 -0.093,1.43183 -0.008,1.86324 0.59224,3.00397 1.67689,3.18743 4.67334,4.00085 7.31801,1.98654 0.49006,-0.37325 1.56514,-1.87493 2.46925,-3.44904 2.56309,-4.46256 4.46606,-7.01395 7.81292,-10.47508 3.80708,-3.93709 10.6066,-9.9357 12.44094,-10.97554 2.71531,-1.53925 4.03155,-2.82901 5.02274,-4.92176 0.68187,-1.43966 0.98431,-4.00017 0.62622,-5.30186 z"
       id="path4529"
       inkscape:connector-curvature="0"
       sodipodi:nodetypes="ccccccccssccccccssscsscsccccccsscc" />
  </g>
</svg>
