<?xml version="1.0" encoding="UTF-8" standalone="no"?>
<!-- Created with Inkscape (http://www.inkscape.org/) -->

<svg
   xmlns:dc="http://purl.org/dc/elements/1.1/"
   xmlns:cc="http://creativecommons.org/ns#"
   xmlns:rdf="http://www.w3.org/1999/02/22-rdf-syntax-ns#"
   xmlns:svg="http://www.w3.org/2000/svg"
   xmlns="http://www.w3.org/2000/svg"
   xmlns:sodipodi="http://sodipodi.sourceforge.net/DTD/sodipodi-0.dtd"
   xmlns:inkscape="http://www.inkscape.org/namespaces/inkscape"
   width="64.69561mm"
   height="55.55814mm"
   viewBox="0 0 64.695609 55.55814"
   version="1.1"
   id="svg8"
   inkscape:version="0.92.4 (5da689c313, 2019-01-14)"
   sodipodi:docname="select.svg">
  <defs
     id="defs2" />
  <sodipodi:namedview
     id="base"
     pagecolor="#ffffff"
     bordercolor="#666666"
     borderopacity="1.0"
     inkscape:pageopacity="0.0"
     inkscape:pageshadow="2"
     inkscape:zoom="2.8"
     inkscape:cx="156.60087"
     inkscape:cy="116.02514"
     inkscape:document-units="mm"
     inkscape:current-layer="layer1"
     showgrid="false"
     inkscape:window-width="2580"
     inkscape:window-height="1408"
     inkscape:window-x="1161"
     inkscape:window-y="76"
     inkscape:window-maximized="0"
     showguides="false" />
  <metadata
     id="metadata5">
    <rdf:RDF>
      <cc:Work
         rdf:about="">
        <dc:format>image/svg+xml</dc:format>
        <dc:type
           rdf:resource="http://purl.org/dc/dcmitype/StillImage" />
        <dc:title />
      </cc:Work>
    </rdf:RDF>
  </metadata>
  <g
     inkscape:label="Layer 1"
     inkscape:groupmode="layer"
     id="layer1"
     transform="translate(-127.31446,274.0781)">
    <path
       style="fill:#242800;fill-opacity:1;stroke-width:0.08210362"
       d="m 144.42164,-274.03644 c -0.10066,0.004 -0.20815,0.0356 -0.36955,0.0937 -0.2702,0.0974 -0.40464,0.10884 -0.57044,0.0547 -0.16091,-0.0526 -0.40963,-0.0713 -0.59508,-0.0488 -0.15586,0.0189 -1.67548,0.041 -2.06277,0.0449 -0.23216,0.002 -0.41004,0.005 -0.55149,0.0273 -0.14145,0.0226 -0.25619,0.0679 -0.32976,0.16211 -0.0735,0.0942 -0.21113,0.21838 -0.20983,0.37305 9.8e-4,0.15467 0.0253,1.40662 0.0587,1.65795 0.0318,0.23898 0.067,0.31116 0.13989,0.42927 0.0729,0.11811 0.53552,0.25224 0.72036,0.35979 0.11874,0.0691 0.20389,0.11098 0.28616,0.125 0.0823,0.014 0.16545,-0.0184 0.21794,-0.0723 0.31348,-0.15344 1.33873,0.006 1.61707,0.13669 0.0175,0.005 0.036,0.004 0.0531,-0.002 0.10767,0.0222 0.23592,0.0327 0.34681,0.0117 0.0394,-0.008 0.16097,-0.0174 0.30701,-0.0215 0.14605,-0.004 0.32149,-0.005 0.48895,-0.002 0.43185,0.009 1.83892,-0.0962 2.2409,-0.0823 0.37298,-0.0205 0.48074,0.12491 0.76368,0.1504 0.28423,-0.0384 0.47581,-0.0686 0.60076,-0.0957 0.4225,-0.0933 0.60126,-0.59383 0.66983,-0.98353 -0.0483,-0.77179 -0.0504,-2.18987 -1.25526,-2.09821 -0.11906,0.0346 -0.27224,0.0189 -0.45863,-0.0645 -0.11203,-0.05 -0.2036,-0.082 -0.28996,-0.0918 -0.0864,-0.01 -0.16789,0.005 -0.23689,0.0449 -0.0791,0.0451 -1.18542,0.0426 -1.3066,-0.0293 -0.087,-0.0516 -0.17413,-0.0837 -0.27479,-0.0801 z m 19.78761,0.0547 c -0.14434,-0.005 -0.2849,0.004 -0.40747,0.0274 -0.31258,0.15907 -0.51871,0.21027 -0.83386,0.1836 -0.54944,-0.19591 -1.27753,-0.0129 -1.91631,-0.012 -0.14846,2e-4 -0.2975,-0.009 -0.44537,0.004 -0.11108,0.01 -0.22759,0.0119 -0.32975,0.0566 -0.0861,0.0377 -0.14963,0.11388 -0.22363,0.17188 -0.25525,0.20006 -0.62762,0.31137 -0.76002,0.60742 -0.21506,0.48088 0.11632,1.2381 0.0876,1.57792 -0.0227,0.14402 0.17075,0.25398 0.18715,0.35547 0.0165,0.10148 0.58727,0.18937 0.65046,0.27539 0.0702,0.0955 0.15401,0.1698 0.28238,0.20703 0.12838,0.0372 0.29922,0.0485 0.58939,0.0625 0.48289,0.11352 1.42601,0.0869 1.80061,0.0708 0.2148,0.11506 0.35496,0.0317 0.52306,-0.0684 0.188,-0.15131 0.38494,-0.1126 0.60131,-0.1426 0.23903,-0.0421 0.36389,-0.0247 0.45105,0.0352 0.0746,0.0513 1.8367,0.0348 1.95723,0.0651 0.26005,0.0683 0.51065,0.082 0.76753,0.0879 1.55205,-0.0817 1.81189,-0.27788 2.00965,-1.3701 0.004,-0.22332 -0.44131,-1.53716 -0.49501,-1.67524 -0.38928,-0.36197 -1.09921,-0.34814 -1.63083,-0.40819 -0.17034,-0.009 -0.34267,-0.003 -0.48516,0.0176 -0.47953,0.31118 -1.83233,-0.10457 -2.37919,-0.12892 z m -30.73283,0.0238 c -0.118,0.01 -1.31546,0.0386 -1.47906,0.084 -0.46147,0.077 -0.50897,0.15687 -0.57442,0.60876 0.0341,0.65782 0.044,0.94003 0.14862,1.58161 -8.6e-4,0.26349 0.0765,0.39774 0.23899,0.5288 0.0489,0.0168 0.10958,0.0409 0.16867,0.0664 0.0466,0.0201 0.10457,0.0323 0.18383,0.0469 0.0793,0.0145 0.1774,0.0276 0.28806,0.041 0.22133,0.0269 0.17044,0.0172 0.44336,0.0311 0.26978,0.0137 0.96806,0.19706 1.15195,0.21416 0.16158,0.002 0.28031,0.10013 0.42277,0.0823 0.0998,-0.0125 0.12529,-0.054 0.2729,-0.1289 0.1483,-0.0753 0.30084,-0.0917 0.40746,-0.0606 0.12987,0.038 0.32014,0.0642 0.45294,0.0645 0.16427,0.0173 0.21718,0.0563 0.34111,0.1211 0.0556,0.006 0.11607,0.004 0.18004,-0.006 0.20897,-0.14879 0.33344,-0.0819 0.48698,-0.0859 0.12417,0.10371 0.29349,0.14634 0.45673,0.14844 0.16324,0.002 0.32575,-0.0326 0.42262,-0.15235 0.0436,-0.0537 0.63297,-0.0717 0.72626,-0.0449 0.0762,0.0218 0.40693,-0.29488 0.47609,-0.33298 0.0692,-0.0381 0.11564,-0.1081 0.14593,-0.19336 0.0606,-0.17053 0.354,-1.16412 0.3525,-1.55151 -9.1e-4,-0.22468 -0.009,-0.38906 -0.0322,-0.51758 -0.0237,-0.12851 -0.0656,-0.22517 -0.13077,-0.29687 -0.10073,-0.11082 -0.25766,-0.16471 -0.41314,-0.18555 -0.15548,-0.0208 -0.31287,-0.017 -0.41694,0.0898 0.0176,-0.0179 0.006,-0.005 -0.0227,0 -0.0284,0.005 -0.0734,0.009 -0.12698,0.01 -0.10706,6.4e-4 -0.25437,-0.0107 -0.42451,-0.0332 -0.16728,-0.0221 -0.32239,-0.0332 -0.44537,-0.0332 -0.2073,0.019 -0.34467,0.0685 -0.54014,0.0705 -0.13437,-0.0143 -0.28537,-0.0559 -0.37524,-0.10547 -0.0623,-0.0347 -0.13642,-0.0483 -0.22553,-0.0586 -0.0891,-0.0103 -0.18965,-0.0117 -0.28427,-0.004 -0.41574,0.0347 -1.03012,0.0845 -1.35536,0.0842 -0.16261,-1.6e-4 -0.30399,-0.005 -0.41314,-0.0137 -0.10914,-0.009 -0.19266,-0.0257 -0.21035,-0.0332 -0.0828,-0.0352 -0.17955,-0.0448 -0.29754,-0.0352 z m 49.35628,-0.11993 c -0.52345,0.16051 -1.65012,0.083 -2.10019,0.27044 -0.92412,0.22075 -1.29366,1.03952 -1.58036,2.03604 -0.0192,0.29528 0.004,0.58759 0.0853,0.80469 0.24961,0.5199 0.76992,0.44747 1.22884,0.41473 0.8053,0.0428 1.03656,-0.0946 1.76005,0.15903 0.22185,0.14886 0.53993,0.11308 0.88124,-0.0547 0.55353,0.20308 1.54123,0.30463 2.15521,0.22477 0.45276,-0.13245 0.72848,-0.72863 0.96837,-0.52717 1.27525,-0.052 2.4864,-1.0919 2.76085,-1.99988 0.22908,-0.59556 -0.16474,-0.79495 -0.60139,-1.07369 -0.41882,-0.0527 -0.70355,-0.14943 -0.88655,-0.15293 -0.36602,0.0212 -0.58829,0.10164 -0.93579,0.0996 -0.22627,-0.009 -0.48639,-0.0426 -0.5856,-0.0781 -0.072,-0.0257 -0.14999,-0.0209 -0.23311,-0.006 -0.32855,0.20939 -1.12186,0.0437 -1.45409,0.0607 -0.0971,0.0209 -0.30319,-10e-4 -0.40177,-0.043 -0.18712,-0.0797 -0.89437,-0.12562 -1.05981,-0.13476 z m -32.13907,0.13385 c -0.16,0.002 -0.81648,0.009 -0.92715,0.041 -0.11068,0.0318 -0.20626,0.0947 -0.26912,0.19141 -0.1257,0.19333 -0.70236,1.51728 -0.72068,2.02742 -0.0109,0.301 0.25577,0.50164 0.27127,0.64843 0.0153,0.1468 0.96675,0.17329 1.03195,0.24515 0.0398,0.0438 0.51421,0.17813 0.55751,0.20179 0.15982,0.005 0.65013,0.0305 0.77359,0.0449 0.10188,0.0632 0.23087,0.0687 0.37335,0.043 0.30988,-0.0975 0.47488,-0.2449 0.73152,-0.14063 0.40362,0.0246 0.64153,0.10765 0.99722,0.1073 0.35948,-0.1923 0.52375,0.11173 0.88686,0.10354 0.20997,-0.0698 0.88216,-0.10762 1.06357,-0.1465 0.10326,-0.005 0.23688,-0.004 0.37145,0.002 0.13457,0.006 0.2699,0.0172 0.37713,0.0312 0.39904,0.0656 0.84034,0.10861 1.21631,0.0485 0.15027,-0.0312 0.25158,-0.0574 0.32975,-0.10742 0.0782,-0.05 0.53116,-0.11565 0.53245,-0.20151 0.33302,-0.21387 0.53787,-1.5454 0.49276,-2.21526 -0.2109,-0.61012 -0.50495,-0.85933 -1.23846,-0.77364 -0.16485,0.0203 -0.37928,0.0311 -0.51063,0.0331 -0.13853,0.0102 -0.75378,-0.0641 -0.86912,-0.089 -0.0613,-0.008 -0.13674,-0.0172 -0.22363,-0.0234 -0.17378,-0.0124 -0.91916,-0.0195 -1.14131,-0.0234 -0.22214,-0.004 -0.45004,-0.004 -0.64245,0.002 -0.19241,0.006 -0.34624,0.0167 -0.44158,0.0371 -0.18131,0.0386 -0.87599,0.0343 -1.06771,0.0354 -0.17002,0.0286 -0.33867,-0.059 -0.40308,-0.082 -0.0365,-0.0104 -0.0808,-0.0171 -0.13076,-0.0234 -0.0998,-0.0127 -1.28529,-0.0191 -1.42029,-0.0176 z m 21.90708,0.23701 c -0.8053,0.002 -1.65535,-0.065 -1.95079,0.0843 -0.46868,0.22959 -0.95951,0.31269 -0.93556,0.81637 0.13286,0.70766 0.0293,2.05523 0.71257,2.27997 0.19275,0.0435 0.55414,0.0668 0.83576,0.0586 0.91783,2.6e-4 0.53832,0.0519 1.50426,-0.0177 0.077,-0.0213 2.08567,-0.0339 2.20007,0.0213 h 0.002 c 0.83206,0.205 1.6452,0.0418 2.38599,-0.0693 0.39463,0.0668 0.8585,-0.2818 0.94173,-0.58287 0.53913,-0.67614 0.75947,-1.40493 0.71354,-2.18836 -0.32169,-0.61931 -1.32915,-0.55047 -1.96759,-0.39605 -0.54638,0.0189 -0.88925,-0.0206 -1.22043,0.0141 -0.14466,-0.005 -0.35952,-0.0248 -0.62919,-0.0606 -0.56858,-0.15818 -2.07673,0.019 -2.59236,0.0402 z m -42.30347,-0.20173 c -0.0909,0.0158 -1.03024,0.48012 -1.12812,0.52412 -0.19579,0.088 -0.307,0.0154 -0.50438,0.19754 -0.31614,0.25644 -0.38014,0.44221 -0.26285,0.77984 -7.5e-4,0.18176 -0.0829,0.35481 -0.1031,0.53544 -0.0235,0.20978 -0.007,0.42229 -0.0208,0.63293 -0.0107,0.16345 -0.0349,0.32577 -0.0482,0.48903 -0.037,0.45315 -0.13245,0.90866 -0.0879,1.36113 0.0125,0.12674 0.0754,0.2439 0.0985,0.36914 0.0782,0.42416 0.0636,0.86143 0.13394,1.28695 0.0678,0.41016 0.23645,0.60798 0.27709,1.21602 -0.007,0.14229 0.53098,0.58423 0.53098,0.58423 0.28598,0.18555 0.64455,-0.12855 0.95924,-0.22167 0.26704,-0.079 0.57885,-0.0982 0.7853,-0.28515 0.15101,-0.13672 0.21821,-0.35254 0.26448,-0.55092 0.10936,-0.4689 0.005,-0.96299 0.0154,-1.44436 0.008,-0.3491 0.0227,-0.92543 0.0348,-1.04696 0.012,-0.12154 0.0157,-0.26526 0.0133,-0.41016 -0.003,-0.1449 -0.0122,-0.29028 -0.0284,-0.41406 -0.0162,-0.12378 -0.0323,-0.7495 -0.0777,-0.82605 -0.0377,-0.0633 -0.0554,-0.11582 -0.0606,-0.1914 -0.005,-0.0751 0.005,-0.17639 0.0322,-0.31836 v -0.002 c 0.0223,-0.11341 0.0422,-0.20243 0.0379,-0.30468 -0.008,-0.19343 -0.0849,-0.37788 -0.1196,-0.56835 -0.0223,-0.12247 -0.0611,-0.24469 -0.0568,-0.3691 0.002,-0.0714 0.0605,-0.1388 0.0473,-0.20899 -0.0297,-0.15749 -0.25246,-0.20582 -0.26946,-0.39815 0.008,-0.35059 -0.16685,-0.42204 -0.46242,-0.41611 z m 58.24566,2.93888 c -0.0421,-0.003 -0.19721,-0.0216 -0.23918,0.006 -0.2854,0.14897 -1.40465,0.37367 -1.57803,0.5088 -0.11673,0.11392 -0.3122,0.3237 -0.45798,0.4632 -0.05,0.10499 -0.34957,0.585 -0.43544,1.25207 -0.0298,0.31833 -0.0955,1.97627 -0.009,2.53229 0.0429,0.27507 0.0289,0.41324 -0.0341,0.52929 -0.14622,0.26889 -0.16993,0.65996 -0.0455,0.91797 0.028,0.0579 0.0265,0.23808 -0.0531,0.53906 -0.0503,0.19027 0.004,0.40075 0.002,0.501 0.16073,0.89728 -0.0701,0.40835 -0.006,1.66694 0.0128,0.11449 0.0183,0.21122 0.0171,0.23243 0.1124,0.21762 0.16083,0.46816 0.27864,0.7072 0.0859,0.14318 0.25051,0.21188 0.36422,0.27369 0.0446,0.0363 1.85073,-0.005 1.89916,0.052 0.28021,0.33998 0.38358,0.0129 0.64617,-0.14849 0.22376,-0.1072 0.3828,-0.21634 0.47948,-0.34766 0.0966,-0.13131 0.12014,-0.29207 0.0682,-0.44531 -0.0449,-0.13257 -0.0655,-0.30913 -0.0588,-0.46094 0.11419,-0.33622 0.17465,-0.63658 0.1857,-0.97265 -6.2e-4,-0.14339 -0.009,-0.29097 -0.0247,-0.41992 -0.0156,-0.12896 -0.0362,-0.23809 -0.0758,-0.32032 -0.0362,-0.0752 -0.033,-0.14532 0.0189,-0.24414 0.0777,-0.14816 0.12376,-0.36029 0.14404,-0.56054 -0.0403,-0.42334 -0.0554,-0.71072 0.0417,-1.0918 0.18423,-0.53089 -0.13046,-1.9151 -0.14926,-2.44542 -0.008,-0.33025 0.20286,-1.66864 0.16786,-1.81383 -0.035,-0.14519 -0.10516,-0.23826 -0.20468,-0.33984 -0.20224,-0.2064 -0.45265,-0.38014 -0.66141,-0.48047 -0.10438,-0.0502 -0.19619,-0.0848 -0.28048,-0.0898 z m -60.07852,5.95822 c -0.24651,0.32135 -0.19918,0.59358 -0.22505,0.92003 -0.0684,0.0702 -0.10719,0.17202 -0.12319,0.33203 -0.016,0.16001 -0.0147,0.38912 -0.006,0.75391 0.0168,0.68352 -0.0106,0.40062 -0.0947,0.57239 -0.13167,0.2483 -0.0744,0.41542 -0.045,0.64645 0.0118,0.13177 0.0217,0.30396 0.0266,0.48243 0.009,0.33164 -0.0362,1.77762 -0.0187,2.04976 0.11932,0.641 -0.0862,0.98841 0.0704,1.44425 0.0488,0.14214 0.12117,0.30981 0.25941,0.36876 0.12824,0.0547 0.27828,-0.029 0.41342,-0.0632 0.54695,-0.13855 1.29473,-0.41009 1.59322,-0.57167 0.0776,-0.019 0.15519,-0.0517 0.22363,-0.0977 0.13101,-0.0879 0.5876,-0.49307 0.73888,-0.6633 0.303,-0.76791 0.2094,-1.89372 0.22583,-2.44358 1e-5,-6.7e-4 1e-5,-0.001 0,-0.002 0.004,-0.1266 -0.009,-0.27748 -0.0284,-0.41406 -0.0125,-0.86809 -0.14852,-0.81016 -0.13246,-1.8301 0.20642,-0.30197 0.15252,-1.07469 -0.0895,-1.38474 -0.1802,-0.3372 -0.27874,-0.37421 -0.61256,-0.44934 -0.79621,-0.25033 -1.69718,-0.39697 -2.17584,0.34967 z m 1.99902,7.2773 c -0.13206,0.0553 -0.23131,0.0515 -0.35628,0.0901 0,0 -1.81187,0.2765 -2.25725,1.30291 -0.0781,0.1631 -0.12837,0.40755 -0.1194,0.59375 0.006,0.14138 -0.0379,0.36236 -0.0777,0.4375 -0.36983,1.58714 -0.40428,1.65189 -0.25714,2.98601 -0.0814,0.19758 0.0935,0.38929 0.1458,0.55863 -0.012,2.00165 0.78951,1.59082 2.49154,1.4883 0.0203,-0.005 0.1398,0.0137 0.20088,0.0488 0.13474,0.0775 0.29523,0.0607 0.42452,-0.002 0.12927,-0.0626 0.24164,-0.17949 0.24447,-0.33594 -0.01,-0.0553 0.0349,-0.10646 0.0474,-0.1445 0.0679,-0.0428 0.0882,-0.11575 0.0966,-0.19141 0.009,-0.0757 0.004,-0.1638 -0.0133,-0.26758 -0.0279,-0.16794 -0.0636,-0.40217 -0.0777,-0.51562 -0.15721,-0.48449 -0.0335,-0.89333 0.007,-1.34176 0.0105,-0.17505 0.0134,-0.3997 0.008,-0.63867 -0.0208,-0.84301 0.22739,-2.59029 0.25899,-3.12085 0.0107,-0.17963 -0.0291,-0.37633 -0.12888,-0.49805 -0.11395,-0.23529 -0.16193,-0.33799 -0.4188,-0.42781 -0.0722,-0.016 -0.14718,-0.025 -0.21794,-0.0215 z m 55.93796,-2.00623 c -0.14284,0.0271 -0.2472,0.10306 -0.41503,0.22656 -0.27244,0.20048 -0.39,1.26198 -0.4321,1.51683 -0.0888,1.29422 -0.0993,1.03705 0.11222,1.6717 -0.0645,0.20337 -0.11512,1.12898 -0.10132,1.50213 0.0187,0.50598 -0.0361,1.19976 -0.17523,1.59943 -0.0771,0.22161 -0.12006,0.3584 -0.13266,0.47461 -0.0126,0.1162 0.0154,0.21208 0.0644,0.29882 0.0583,0.10323 0.0826,0.15247 0.10612,0.2793 0.0235,0.12683 0.0427,0.41096 0.0739,0.79321 0.0214,0.67907 0.22111,1.53938 0.78529,1.24868 0.45244,-0.0351 1.5399,-0.28992 1.94627,-0.23662 0.31987,0.13616 0.68614,-0.80265 0.97909,-1.08874 0.2743,-0.37042 0.13113,-0.85729 0.25753,-1.17491 0.0355,-0.17325 0.0276,-0.35521 -0.0606,-0.49414 h 0.002 c -0.0581,-0.0918 0.0949,-1.69005 0.11294,-2.2187 0.007,-0.20314 0.0136,-0.40326 0.0171,-0.56054 0.004,-0.15729 0.004,-0.26592 0.002,-0.3125 -0.003,-0.0587 8.5e-4,-0.26455 0.006,-0.43946 0.006,-0.19496 -0.0309,-0.41306 -0.1156,-0.54687 -6.5e-4,-1e-5 -9.7e-4,-1e-5 -0.002,0 -0.098,-0.17515 -0.0229,-0.35883 0.0115,-0.51172 0.0776,-0.29218 0.092,-0.72558 0.0664,-1.12109 -0.0128,-0.19776 -0.0367,-0.38389 -0.0702,-0.53907 -0.11318,-0.50645 -0.40473,-0.80371 -0.85459,-0.86646 -0.31935,-0.17693 -1.55581,0.22981 -2.18395,0.49955 z m -58.17355,10.36522 c -0.52504,0.43165 -0.60417,1.13261 -0.62192,1.53925 -0.01,0.22362 -0.0229,0.43561 -0.0342,0.59765 -0.006,0.081 -0.0103,0.14924 -0.0151,0.19922 -0.003,0.025 -0.006,0.0462 -0.008,0.0606 -0.002,0.0144 -0.005,0.0273 -0.002,0.0176 -0.0118,0.0365 -0.0106,0.0588 -0.01,0.0898 9.7e-4,0.031 0.006,0.0669 0.0113,0.10547 0.0107,0.0772 0.0277,0.16714 0.0511,0.25781 0.0599,0.23162 0.0539,0.36372 -0.0342,0.65625 -0.0685,0.22743 -0.11153,0.51926 -0.0929,0.69922 0.0198,0.17835 -0.0343,0.36283 -0.0682,0.52344 0.002,0.071 0.0161,0.14821 0.0417,0.2207 0.0139,0.0403 0.0371,0.16725 0.0531,0.31836 0.0161,0.15201 0.0284,0.33412 0.0322,0.50586 0.008,0.35879 0.0637,0.81206 0.13646,1.04492 0.0635,0.20318 0.11435,0.47528 0.11371,0.54883 -4.2e-4,0.0788 0.0252,0.15805 0.0625,0.23828 0.0376,0.0808 0.0882,0.16094 0.14782,0.22656 0.0794,0.0874 0.14614,0.14806 0.2312,0.17774 0.7644,0.25081 1.95752,0.40523 2.67816,-0.24433 0.0716,-0.0635 0.12213,-0.15554 0.13834,-0.29102 0.0162,-0.13547 0.0105,-0.32518 -0.006,-0.64062 -0.0201,-0.3996 -0.0309,-0.84733 -0.0265,-0.97461 0.006,-0.15792 -0.023,-0.39464 -0.0682,-0.56055 -0.0462,-0.16971 -0.0454,-0.37379 0.0151,-0.65039 0.10462,-0.35398 -0.0213,-0.69619 0.0231,-1.00391 0.0729,-0.13882 0.11757,-0.27622 0.13265,-0.40234 0.015,-0.12612 9.7e-4,-0.24617 -0.0664,-0.33594 -0.007,-0.29876 0.0256,-0.55001 -0.1136,-0.81246 -0.0443,-0.14289 -0.0379,-0.27739 -0.0379,-0.42187 0.0383,-0.19548 -0.077,-0.41524 -0.13531,-0.62487 0.0123,-0.038 -0.0837,-0.44276 -0.2913,-0.71568 -0.53675,-0.92404 -1.32094,-0.49752 -2.23671,-0.34897 z m 58.91612,-0.17691 c -0.43868,0.12434 -0.42177,0.12713 -0.86785,0.20509 -0.39599,0.2017 -0.55486,0.25367 -0.72016,0.66602 -0.0506,0.11266 -0.0802,0.23606 -0.0909,0.5293 -0.0108,0.29324 -0.006,2.88499 0.006,3.73581 0.006,0.40987 0.0178,0.75269 0.036,1 0.009,0.12365 0.0183,0.22264 0.0303,0.29687 0.10097,0.21736 0.0967,0.46201 0.0927,0.7558 -0.009,0.20267 -0.008,0.36718 0.006,0.49805 0.0138,0.13087 0.0354,0.2289 0.0909,0.30273 0.0347,0.0433 0.0268,0.0949 0.0414,0.1466 0.0134,0.0254 0.0306,0.0473 0.0531,0.0762 0.0449,0.0578 0.11138,0.13367 0.19141,0.2168 0.20648,0.21445 0.64269,0.19515 0.83921,0.19275 0.60626,-0.43483 1.6067,-0.57918 2.00334,-1.07412 0.14907,-0.14263 0.20547,-0.84771 0.20278,-1.12682 v -0.002 c -0.002,-0.1971 -0.19299,-0.49521 -0.19299,-0.63104 1.7e-4,-0.11248 0.0618,-0.28077 0.0966,-0.32031 0.11865,-0.1666 0.12797,-0.36231 0.14783,-0.54688 0.0722,-1.05468 0.0769,-1.43856 -0.0178,-1.68354 -0.0255,-0.1781 -0.0462,-0.39851 -0.0419,-0.6055 0.0423,-0.15718 0.0225,-0.38881 -0.0342,-0.57422 -0.052,-0.10537 -0.0288,-0.20644 -0.0303,-0.31051 0.11843,-0.52408 0.0285,-0.82482 -0.18996,-1.14631 -0.0877,-0.0358 -0.20602,-0.58877 -0.37145,-0.61117 -0.25053,-0.0341 -1.221,0.0209 -1.28105,0.0105 z m -58.5014,8.98569 c -0.11768,-0.0135 -0.24849,-0.0113 -0.39039,0.004 -0.19618,0.021 -0.3056,0.0251 -0.39609,0.0879 -0.0452,0.0314 -0.0765,0.0844 -0.0891,0.13476 -0.0126,0.0504 -0.0122,0.0998 -0.0133,0.16016 -0.002,0.11638 -0.0492,0.31323 -0.0891,0.38867 -0.0719,0.13601 -0.11195,0.28636 -0.1175,0.41406 -0.003,0.0639 9.7e-4,0.1215 0.0227,0.17578 0.16841,0.14628 0.0902,0.24953 0.0492,0.45514 -0.0343,0.14497 -0.055,0.27466 -0.0626,0.38477 0.0326,0.34648 0.0413,0.60808 0.18562,0.92964 9.7e-4,0.0333 -0.0128,0.0774 -0.0549,0.16015 -0.0935,0.18384 -0.1165,0.47383 -0.10613,0.75977 0.005,0.14296 0.0214,0.28314 0.0474,0.40429 0.026,0.12116 0.0577,0.22184 0.1194,0.29688 0.0619,0.0755 0.0747,0.0882 0.0739,0.14453 -8.3e-4,0.0564 -0.032,0.17278 -0.10043,0.39062 -0.13446,0.42841 -0.13764,0.54741 -0.0284,0.97461 0.0335,0.13115 0.0767,0.26165 0.12129,0.36915 0.18595,0.32366 0.1369,0.5354 0.4652,0.728 0.0663,0.0187 0.30757,0.0708 0.36107,0.0258 0.026,-0.0221 1.14958,-0.0404 1.16392,-0.0371 0.0586,0.0133 0.11877,0.01 0.20657,0.004 0.0878,-0.006 0.19152,-0.0178 0.29376,-0.0332 0.1584,-0.0239 0.26595,-0.0481 0.35439,-0.10938 0.0884,-0.0613 0.14029,-0.15251 0.18951,-0.27344 0.0653,-0.16057 0.11785,-0.37304 0.1194,-0.51758 v -0.002 c 0.003,-0.25276 -0.0184,-0.64481 -0.0493,-0.98828 -0.0154,-0.17208 -0.0339,-0.33217 -0.0511,-0.45508 -0.009,-0.0614 -0.0177,-0.11446 -0.0265,-0.15625 -0.009,-0.0418 -0.005,-0.0633 -0.0379,-0.10937 0.0152,0.0213 0.009,0.02 0.008,0.0137 -9.7e-4,-0.006 -9.7e-4,-0.0185 -0.002,-0.0352 -0.002,-0.0334 -0.004,-0.0828 -0.002,-0.14062 0.003,-0.11573 0.0141,-0.26759 0.0284,-0.42578 0.0288,-0.31639 0.0809,-0.66823 0.11182,-0.76172 0.0194,-0.0585 0.0115,-0.10536 0.004,-0.16406 -0.008,-0.0587 -0.0213,-0.12348 -0.0417,-0.18555 -0.0364,-0.11045 -0.0241,-0.18392 0.006,-0.22071 0.051,-0.063 0.0626,-0.13395 0.0758,-0.22265 0.0133,-0.0887 0.0194,-0.19287 0.0189,-0.29688 -4.3e-4,-0.104 -0.007,-0.20746 -0.0209,-0.29882 -0.0676,-0.15697 -0.0572,-0.26325 -0.0911,-0.4121 -0.005,-0.11256 -0.15755,-0.2698 -0.14755,-0.41806 l 0.0342,-0.55079 c -0.0803,-0.25934 -0.47698,-0.35353 -0.78459,-0.50382 -0.0926,-0.0462 -1.23954,-0.0744 -1.35723,-0.0879 z m 59.60392,-0.008 c -0.0771,0.0147 -0.86086,0.13769 -0.93045,0.18429 -0.0872,0.0586 -0.25169,0.0874 -0.29753,0.0742 -0.0444,-0.0127 -0.63359,0.0137 -0.68364,0.0254 -0.0501,0.0119 -0.0954,0.0435 -0.13456,0.084 -0.0783,0.081 -0.14979,0.20559 -0.25963,0.41601 -0.10842,0.20757 -0.17369,0.34883 -0.20657,0.47852 -0.009,0.30933 0.0323,0.57238 -0.0575,0.8027 -0.0122,0.0542 -0.0203,0.11937 -0.0284,0.19531 -0.0162,0.15189 -0.0274,0.3438 -0.0303,0.54297 -0.006,0.39835 0.0107,0.81367 0.072,1.02344 0.0578,0.19663 0.0624,0.45725 0.006,0.89258 -0.0417,0.31976 -0.0642,0.48821 -0.0625,0.625 0.002,0.13678 0.0304,0.23538 0.0796,0.38281 0.0255,0.0764 0.0409,0.21809 0.0341,0.26758 -0.0227,0.1726 -6.9e-4,2.02025 0.17929,2.31389 0.12094,0.23455 0.24788,0.58465 0.42405,0.73365 0.71982,0.52589 1.7225,0.37517 1.995,0.29694 0.0383,-0.002 0.0658,-0.0136 0.0947,-0.0293 0.058,-0.0313 0.11587,-0.0803 0.17246,-0.13672 0.49791,-0.79101 0.45877,-2.03905 0.50266,-2.94289 -0.0596,-0.20541 -0.0574,-0.29955 0.002,-0.43164 0.041,-0.0916 0.0598,-0.19251 0.0549,-0.31641 -0.005,-0.1239 -0.031,-0.27239 -0.0777,-0.47851 -0.0323,-0.1416 0.005,-1.27331 -0.005,-1.38086 -0.005,-0.0538 -0.0563,-0.5733 -0.0553,-0.60529 8.2e-4,-0.032 0.0737,-0.32507 0.0591,-0.30097 0.0292,-0.0483 0.0289,-0.0772 0.0379,-0.12891 0.009,-0.0517 0.0165,-0.11745 0.0246,-0.19336 0.0163,-0.15182 0.0305,-0.34543 0.0398,-0.54687 0.0149,-0.32367 0.0197,-0.51814 -0.004,-0.67969 -0.13781,-0.42864 -0.31723,-0.95414 -0.71638,-1.16797 -0.0731,-0.014 -0.1522,-0.0147 -0.22931,0 z m -58.11023,8.41658 c -0.10454,0.002 -0.20929,0.0116 -0.29754,0.0273 -0.0883,0.0157 -1.19443,0.0236 -1.25679,0.0742 -5e-5,4e-5 -0.0603,0.0323 -0.13076,0.0547 -0.0704,0.0224 -0.15737,0.0425 -0.24069,0.0566 -0.18322,0.0311 -0.36321,0.11688 -0.50411,0.22266 -0.1409,0.10577 -0.25352,0.2278 -0.25584,0.38281 -8.1e-4,0.0468 0.008,0.0917 0.0303,0.13086 0.25608,0.3049 0.18091,1.41337 0.0398,1.89262 0.008,0.0846 0.0436,0.16988 0.10045,0.28711 0.27591,0.68854 -0.27609,1.0488 -0.036,1.66407 -0.1501,0.51754 0.21183,0.99086 0.14773,1.53125 -0.18603,0.27139 -0.26957,0.53128 -0.25409,0.84375 0.0285,0.0959 0.16948,0.75748 0.25703,0.85808 0.0926,0.10642 0.11801,0.52576 0.13412,0.60053 0.0161,0.0748 0.01,0.1899 -0.0151,0.40625 -0.0247,0.21725 -0.0374,0.34978 -0.0133,0.4668 0.0241,0.11702 0.0888,0.20226 0.18003,0.30273 0.11864,0.13078 0.37798,0.49609 0.80818,0.17396 0.17,-7.1e-4 0.94194,-0.55364 1.19601,-0.6761 0.0688,-0.0331 0.1397,-0.0622 0.1952,-0.0801 0.0277,-0.009 0.052,-0.0145 0.0682,-0.0176 0.0163,-0.003 0.0288,0.002 0.008,-0.004 6.5e-4,1e-5 9.7e-4,1e-5 0.002,0 0.10796,0.0286 0.21248,-0.0104 0.29943,-0.0684 0.087,-0.058 0.1787,-0.56477 0.18049,-0.68303 3.1e-4,-0.0193 0.0479,-0.11864 0.0928,-0.15235 0.11182,-0.0839 0.1661,-0.2317 0.16488,-0.3789 -9.5e-4,-0.11175 -0.004,-0.85493 -0.004,-1.64649 -0.007,-0.61605 -0.0283,-1.16972 -0.064,-1.70314 0.19562,-0.6715 0.12464,-1.4039 0.0221,-2.03902 -0.0108,-0.18432 -0.005,-0.45908 0.0151,-0.89063 l 0.0493,-1.06055 c 0.002,-0.0259 -0.008,-0.0513 -0.0246,-0.0703 l -0.23121,-0.24414 c -0.0994,-0.10488 -0.18525,-0.17573 -0.28996,-0.2168 -0.10469,-0.0411 -0.21883,-0.0485 -0.37334,-0.0449 z m 56.75128,1.33683 c -0.47721,-0.17337 -0.83778,0.18487 -0.80153,0.63692 0.0332,0.17537 -0.0134,0.39787 0.0497,1.02808 -0.004,0.11863 -0.002,0.25364 -0.0147,0.33808 -0.0126,0.0844 -0.0522,0.30238 -0.0459,0.29418 -0.0991,0.1294 -0.14191,0.32438 -0.1554,0.52344 0.12053,0.44783 -0.0393,0.68561 -0.0232,1.09979 0.0157,0.0932 -0.0371,0.25341 0.003,0.34617 0.0336,0.48492 -0.0346,0.78166 0.0658,1.23799 -9.7e-4,0.0288 -0.0127,0.0572 -0.0569,0.11914 -5.8e-4,-7.4e-4 -9.7e-4,-0.001 -0.002,-0.002 -0.0261,-0.0331 -0.0595,-0.0702 -0.10045,-0.10938 -0.0819,-0.0784 -0.19266,-0.16845 -0.31458,-0.25781 -0.39822,-0.27044 -0.40648,-0.42645 -0.74275,-0.6953 -0.15637,-0.11426 -0.36715,-0.35209 -0.43967,-0.48828 -0.0467,-0.0875 -0.10295,-0.16636 -0.1611,-0.22656 -0.0581,-0.0602 -0.10725,-0.11197 -0.1971,-0.11328 0.0158,2.9e-4 -0.004,-0.001 -0.0284,-0.0156 -0.0241,-0.0143 -0.0572,-0.0389 -0.0929,-0.0684 -0.0715,-0.0589 -0.15658,-0.14165 -0.23499,-0.23242 -0.1121,-0.17308 -0.27003,-0.27957 -0.41877,-0.37515 0.0306,5.6e-4 0.0197,0.004 0.01,-0.002 -0.0102,-0.006 -0.027,-0.0187 -0.0455,-0.0332 -0.0371,-0.029 -0.0845,-0.0697 -0.12887,-0.11523 -0.11674,-0.11979 -0.2554,-0.20459 -0.38851,-0.2461 -0.13311,-0.0415 -0.27336,0.48317 -0.36766,0.57997 -0.0937,0.0963 -0.0951,0.24105 -0.0569,0.39453 0.0382,0.15348 0.12077,0.32893 0.24258,0.51367 0.10337,0.15677 0.22881,0.38688 0.26723,0.48437 0.0564,0.14297 0.36452,0.5238 0.51799,0.71089 0.072,0.0878 0.13804,0.17853 0.18383,0.25 0.0229,0.0357 0.0402,0.0677 0.0511,0.0898 0.011,0.0222 0.0109,0.0438 0.0114,0.0137 -9.7e-4,0.0847 0.18409,0.31982 0.22729,0.3606 0.0431,0.0408 0.0984,0.0785 0.15919,0.10938 0.0384,0.0195 0.0807,0.0565 0.11182,0.0957 0.0311,0.0392 0.0487,0.082 0.0511,0.10156 0.017,0.1371 0.22865,0.41445 0.34512,0.48628 0.0736,0.0455 0.18279,0.14313 0.21225,0.18359 0.0687,0.0942 0.1807,0.15577 0.29565,0.17579 0.0423,0.007 0.10121,0.07 0.10612,0.0996 0.0321,0.19305 0.34467,0.40961 0.54734,0.63559 0.20267,0.22598 0.39894,0.37253 0.61392,0.48645 0.40801,0.66574 1.77027,1.07407 2.31872,0.33234 0.18045,-0.3227 0.37602,-0.50037 0.64991,-0.68667 0.0753,-0.0775 0.16725,-0.18193 0.19224,-0.29351 0.0314,-0.14029 0.13874,-0.33773 0.24869,-0.39105 0.28515,-0.47444 0.15533,-0.25334 0.35344,-0.62516 0.0197,-0.0452 0.0957,-0.16202 0.1933,-0.28906 0.0976,-0.12703 0.26642,-0.36462 0.38649,-0.49293 0.12497,-0.13357 0.32087,-0.13061 0.40485,-0.24693 0.042,-0.0582 0.0766,-0.10979 0.10234,-0.15625 0.0257,-0.0464 0.0459,-0.0793 0.0473,-0.13867 7.5e-4,-0.028 0.0393,-0.1306 0.14972,-0.28906 0.1104,-0.15847 0.28605,-0.37701 0.54012,-0.67383 0.15405,-0.17997 0.24969,-0.35851 0.27669,-0.53125 0.027,-0.17274 -0.0833,-0.51789 -0.20688,-0.64007 -0.11044,-0.10827 -0.26204,-0.37056 -0.41081,-0.35537 -0.14933,0.0153 -0.30239,0.07 -0.35818,0.2168 -0.031,0.0452 -0.0983,0.0364 -0.14214,0.0527 -0.1473,-0.003 -0.44837,0.30912 -0.49322,0.45098 -0.0251,0.0795 -0.15712,0.27574 -0.29375,0.42969 -0.16155,0.21264 -0.28944,0.31339 -0.43537,0.46277 0.005,-0.0137 -0.01,0.0137 -0.0341,0.041 -0.0248,0.0273 -0.0601,0.0625 -0.10234,0.10156 -0.28356,0.20514 -0.4728,0.53727 -0.68349,0.81099 -0.2447,0.20565 -0.18659,-0.39516 -0.22186,-0.60798 -0.0469,-0.28286 0.003,-0.44007 0.0184,-0.85995 0.007,-0.20234 0.0377,-0.42638 0.0276,-0.63951 -0.008,-0.163 -0.0769,-0.32197 -0.0675,-0.48489 0.0102,-0.17659 0.12112,-0.31688 0.13322,-0.51367 0.0185,-0.29333 0.0362,-0.45626 0.0218,-0.61495 -0.0148,-0.15868 -0.0405,-0.64388 -0.10049,-0.76264 -0.3093,-0.68609 -1.25806,-0.85411 -1.76964,-1.01996 z m -51.85012,8.74686 c -0.5309,0.0766 -1.41612,0.0518 -2.00319,0.0466 -0.33903,-0.003 -0.67556,-2.1e-4 -0.93809,0.01 -0.13127,0.005 -1.30138,0.0109 -1.38809,0.0195 -0.14401,0.0416 -0.20767,0.0156 -0.33971,-0.0138 -0.0658,0.006 -0.1451,0.0251 -0.2331,0.0566 -0.46704,0.11048 -1.43947,0.28914 -1.69096,0.69134 -0.0875,0.164 -0.16836,0.36272 -0.18762,0.52344 -0.0224,0.1878 0.0416,0.96119 0.13077,1.18346 0.0445,0.11114 0.0963,0.21485 0.15161,0.29883 0.0553,0.084 0.10832,0.15346 0.19331,0.1836 0.35145,0.12468 0.86599,0.1582 1.175,0.0664 0.11617,-0.0345 0.19291,-0.0442 0.28616,-0.0332 0.0932,0.011 0.73818,0.0466 0.91579,0.11719 0.27429,0.10894 0.39899,0.16469 0.52306,0.18164 0.12406,0.017 0.22203,-0.0118 0.42072,-0.0547 0.59205,-0.12776 0.89419,-0.14846 1.04587,-0.16569 0.0759,-0.009 0.91836,-0.0463 0.93372,-0.0413 0.0153,0.005 0.27005,0.0105 0.29915,0.0371 0.10536,0.0964 0.25772,0.10733 0.42073,0.0586 0.0671,-0.0201 0.30423,-0.0433 0.66709,-0.0547 0.36286,-0.0114 0.86292,-0.0154 1.49907,-0.01 0.13216,0.001 0.21705,0.005 0.29564,-0.0449 0.17047,-0.0853 0.19341,-0.19235 0.24034,-0.32883 0.24337,-0.41382 0.50383,-0.71153 0.51754,-1.18872 10e-6,-6.7e-4 10e-6,-0.001 0,-0.002 0.027,-0.0722 0.0426,-0.14007 0.0436,-0.20508 -0.0354,-0.12111 -0.0419,-0.19588 -0.0628,-0.28711 0.004,-0.0793 -0.0493,-0.1923 -0.0178,-0.32617 0.0511,-0.67945 -0.34906,-0.68545 -0.76243,-0.6917 -0.0286,3e-4 -0.13561,-0.0106 -0.26343,-0.0273 -0.63523,-0.002 -0.95812,-0.0651 -1.50582,-0.0345 -1e-5,1e-5 -0.36614,0.0354 -0.36616,0.0354 z m 6.913,-0.53517 c -0.0934,-0.007 -1.65467,0.40038 -1.73341,0.42041 -0.78019,0.59236 -1.01263,0.35137 -1.59532,0.96989 -0.1842,0.6716 -0.005,0.64101 0.004,1.32226 0.16468,1.00648 1.60919,1.1033 2.45537,0.99816 0.24876,-0.0242 0.47941,-0.0558 0.72451,-0.0556 0.77611,0.17603 2.58439,0.0293 3.32862,-0.0605 0.68405,-0.0545 1.69437,-0.0549 2.49485,0.0137 0.32031,0.0274 0.5008,0.0415 0.63488,0.0234 0.13408,-0.0181 0.22061,-0.0832 0.29754,-0.16797 0.0497,-0.0548 0.0938,-0.11876 0.12698,-0.18164 0.0332,-0.0629 0.0578,-0.11926 0.0587,-0.1875 9e-5,-0.005 0.01,-0.0395 0.0322,-0.0723 0.0223,-0.0324 0.0555,-0.0654 0.0871,-0.0859 0.0746,-0.0477 0.13507,-0.64765 0.16678,-0.74011 0.0317,-0.0925 0.041,-0.73182 0.0436,-0.88268 0.003,-0.17614 -0.004,-0.30254 -0.0606,-0.42774 -0.0568,-0.1252 -0.15365,-0.23738 -0.3146,-0.41211 -0.14455,-0.15692 -0.24366,-0.25563 -0.33923,-0.31445 -0.0956,-0.0588 -0.19948,-0.0686 -0.28806,-0.0391 -0.0368,0.0122 -0.17226,0.0306 -0.33923,0.0391 -0.16698,0.008 -0.37205,0.0122 -0.58371,0.01 -0.42332,-0.005 -1.93388,-0.0333 -2.1272,-0.0742 -0.14092,-0.0298 -0.24483,-0.0443 -0.33734,-0.0332 -0.0925,0.0111 -0.16994,0.0528 -0.23499,0.11328 -0.0573,0.0533 -1.17257,0.0707 -1.2649,0.0547 -0.38452,-0.19531 -0.82663,-0.25711 -1.23641,-0.22994 z m 10.07398,0.16806 c -0.084,-0.008 -0.16238,-0.008 -0.2312,0.004 -0.0688,0.0123 -0.13563,0.0312 -0.17814,0.10156 0.0215,-0.0356 0.0238,-0.0198 0.006,-0.0156 -0.018,0.004 -0.0499,0.008 -0.0891,0.01 -0.93289,-0.0687 -2.15563,0.089 -1.8629,1.24408 0.0824,0.3224 0.21707,1.63727 0.41503,1.83569 0.34087,0.4491 0.688,0.29495 1.23761,0.28883 0.28749,-0.003 0.52899,-0.0159 0.71636,-0.0371 0.18643,-0.0212 0.3112,-0.0413 0.39988,-0.0977 0.0598,-0.0382 0.10159,-0.0527 0.20279,-0.0508 0.87502,0.14319 1.55283,0.30481 2.29996,0.2598 0.24019,-0.012 0.54812,-0.0224 0.86608,-0.0254 2.44077,-0.34922 2.84735,-0.104 2.94163,-2.23986 0.008,-0.0855 0.007,-0.17697 -0.008,-0.26172 -0.0202,-0.11772 -0.058,-0.21819 -0.13077,-0.29883 -0.0728,-0.0806 -0.17211,-0.13892 -0.31459,-0.20703 -0.20361,-0.0973 -0.54298,-0.19891 -0.78459,-0.23633 -0.21934,-0.0339 -0.50971,-0.12366 -0.60267,-0.17578 v 0.002 c -0.81568,0.19164 -2.07902,-0.18248 -2.81805,0.039 -0.32596,0.1575 -1.29759,0.15646 -1.56204,0.008 -0.14769,-0.0831 -0.33611,-0.13117 -0.5041,-0.14649 z m 9.89226,0.33217 c -0.25641,0.009 -0.68414,0.006 -1.35504,-0.006 -0.6673,-0.18208 -0.93611,0.10878 -1.26028,0.63284 -0.0448,0.13564 -0.0404,0.81227 -0.0341,1.07214 0.006,0.2367 0.0147,0.91415 0.0531,1.03893 0.0384,0.12478 0.10894,0.21618 0.21036,0.31641 0.10943,0.10819 0.19427,0.18311 0.33354,0.20898 0.13928,0.0259 0.31631,0.0115 0.65383,-0.0137 0.62989,-0.2929 1.18999,0.19602 1.70187,-0.0449 0.25578,-0.15014 0.61727,-0.15685 1.14657,0.008 0.48328,0.0547 0.94364,-0.19774 1.2982,0.0742 0.0839,0.0373 0.18146,0.0578 0.27859,0.0644 0.19425,0.0132 0.40077,-0.0171 0.5098,-0.16992 0.005,-0.007 0.0567,-0.0433 0.14592,-0.0625 0.0893,-0.0192 0.21077,-0.0286 0.34681,-0.0273 0.27207,0.002 0.60558,0.0484 0.88883,0.13672 0.37104,0.11561 0.54702,0.12517 0.87556,0.043 0.25781,-0.0645 0.45646,-0.17485 0.58939,-0.35156 0.13293,-0.17671 0.1959,-0.93985 0.21605,-1.24011 0.0201,-0.29906 0.0225,-1.01872 -0.0209,-1.16002 -0.0217,-0.0707 -0.0588,-0.13149 -0.1137,-0.16993 -0.24424,-0.028 -0.36784,-0.15496 -0.54585,-0.29297 -0.0807,-0.0405 -0.17403,-0.0709 -0.2729,-0.0898 -0.19775,-0.038 -0.41113,-0.0375 -0.57044,0.043 -0.12449,0.0629 -0.21899,0.0611 -0.25774,0.0371 -0.0692,-0.0429 -0.14391,-0.0482 -0.24069,-0.0527 -0.0967,-0.005 -0.20968,-2e-4 -0.31838,0.0156 -0.18481,0.0268 -0.5676,0.011 -0.81302,-0.0391 -0.33886,-0.0691 -0.53295,-0.0847 -0.67467,0.006 -0.39983,-0.0655 -0.6797,0.0615 -1.04396,-0.0197 -0.73388,-0.24011 -1.72675,0.0429 -1.72675,0.0429 z m 23.30084,0.26498 c -0.0811,-0.0105 -1.05803,-0.18675 -1.15598,-0.14575 -0.74947,-0.32927 -0.85911,0.002 -2.65509,-0.1859 -0.10418,-0.004 -0.18682,-0.003 -0.25963,0.0254 -0.0539,0.0212 -0.27321,0.0549 -0.43589,0.0547 -0.51979,2.2e-4 -0.95358,0.18847 -1.20721,0.47851 -0.25363,0.29004 -0.31417,1.75492 -0.0833,2.11498 0.0795,0.12398 0.18623,0.30662 0.2331,0.39649 0.58617,0.44967 1.6717,0.51164 2.24245,0.49596 0.11685,-0.0233 0.80591,-0.0697 1.06361,-0.14844 0.004,-0.001 0.0629,-0.003 0.12886,0.0137 0.34619,0.15094 0.57505,0.28816 0.88883,0.0879 0.0354,-0.0364 0.18236,-0.082 0.3904,-0.0781 0.20805,0.004 0.47465,0.0461 0.75617,0.12695 0.19919,0.0573 0.32261,0.0881 0.43778,0.0879 0.50297,-0.22834 0.97694,-0.18023 1.50286,-0.1309 0.20431,0.0192 0.35976,0.0272 0.47189,0.0215 0.23051,-0.0729 0.40729,-0.0926 0.64058,-0.1856 0.53389,-0.15083 0.53914,-0.48313 0.64618,-0.96092 0.0822,-0.66778 0.11248,-1.01407 -0.51548,-1.09752 -0.11295,-0.0109 -0.28252,-0.0927 -0.32597,-0.14063 -0.116,-0.12775 -0.30018,-0.29365 -0.49085,-0.39213 -0.19066,-0.0985 -0.37903,-0.12878 -0.53064,-0.13131 -0.0878,-0.002 -1.48118,-0.13562 -1.53176,-0.18596 -0.0635,-0.0632 0.0811,0.0105 0,0 z m -12.99731,-0.43115 c -0.0803,0.0134 -0.15629,0.0397 -0.22931,0.0781 -0.15764,0.083 -0.25248,0.0927 -0.41125,0.041 -0.0923,-0.03 -0.16988,-0.0469 -0.24258,-0.041 -0.45452,0.14932 -0.93444,0.40798 -1.32992,0.4434 -0.50201,-0.0245 -0.53478,0.30654 -0.57047,0.70899 -0.0109,0.24613 1.9e-4,1.55897 0.0588,1.7224 0.0664,0.18504 0.25651,0.30845 0.4662,0.38672 0.20969,0.0783 0.44511,0.10787 0.63488,0.0351 0.0675,-0.0259 0.11393,-0.0332 0.15161,-0.0293 0.17349,0.0877 0.3652,0.17054 0.5458,0.22267 0.25413,0.0371 0.61841,-0.0143 0.88125,-0.12109 0.0328,-0.0133 0.15016,-0.0337 0.28996,-0.0449 0.13979,-0.0112 0.30739,-0.0178 0.47189,-0.0176 1.05436,2.9e-4 2.45513,0.20706 3.5311,0.21128 0.0664,-0.003 0.1226,-0.008 0.17056,-0.0176 0.31175,-0.0338 0.86284,-0.0664 1.22733,-0.13016 0.073,-0.0208 0.33221,-0.0485 0.37749,-0.10724 0.0453,-0.0587 0.0856,-0.12936 0.11939,-0.20313 0.0921,-0.46959 0.21358,-1.32918 0.18482,-1.86372 -0.0211,-0.10773 -0.0707,-0.20457 -0.15919,-0.28711 -0.0885,-0.0825 -0.42226,-0.17822 -0.60491,-0.27167 -0.26208,-0.13409 -0.90165,-0.26894 -1.13542,-0.30664 -0.20828,-0.0336 -0.47719,-0.10311 -0.56665,-0.14062 -0.51829,-0.146 -1.43707,-0.26696 -1.92021,-0.15619 -0.42019,0.17416 -0.64001,0.27555 -1.01391,0.12886 -0.27925,-0.13347 -0.48832,-0.21245 -0.67088,-0.24023 -0.0913,-0.0139 -0.17555,-0.0134 -0.25585,0 z"
       id="path4542"
       inkscape:connector-curvature="0"
       sodipodi:nodetypes="ccccccccccccccccccccccccccccccccaaaaacccccccccccccccccccccccccccacccccccccccccccccccccccccccccccccccccccccccccccccccccccccccccsccccccccccccccccccccccccccccccccccccsacaaaccsaaaccsccccaaaacccccccccccccccccccccccccccccscccccccccccccaaaccccccccccccccccccccccccccccccccccccccccccccccccccccccccccccccsccccccccccccccccccccccccccccccccccccccccccccccccccccccccccccccccccccccccccccccccccccccccccsccccccccccccccccccccccccsccccccccccccscccccscccccccccccccccccccccsccccccccccccccccccccccccccsccccccccccccccccscccsccccccccccccccsccccccccccccccccccccccccsccaccccccccccccccccccccccccsccccccccccccccssccccccccccscccccccccccccccccccccccccccccccccccccccccccccccccccsccccccccccccccccccccccccccccccccccccccccccccccccccccccccccccccccccccccccccccc" />
  </g>
</svg>
