<?xml version="1.0" encoding="UTF-8" standalone="no"?>
<!-- Created with Inkscape (http://www.inkscape.org/) -->

<svg
   xmlns:dc="http://purl.org/dc/elements/1.1/"
   xmlns:cc="http://creativecommons.org/ns#"
   xmlns:rdf="http://www.w3.org/1999/02/22-rdf-syntax-ns#"
   xmlns:svg="http://www.w3.org/2000/svg"
   xmlns="http://www.w3.org/2000/svg"
   xmlns:sodipodi="http://sodipodi.sourceforge.net/DTD/sodipodi-0.dtd"
   xmlns:inkscape="http://www.inkscape.org/namespaces/inkscape"
   width="37.471119mm"
   height="35.419456mm"
   viewBox="0 0 37.471118 35.419456"
   version="1.1"
   id="svg8"
   inkscape:version="0.92.4 (5da689c313, 2019-01-14)"
   sodipodi:docname="draw-line.svg">
  <defs
     id="defs2" />
  <sodipodi:namedview
     id="base"
     pagecolor="#ffffff"
     bordercolor="#666666"
     borderopacity="1.0"
     inkscape:pageopacity="0.0"
     inkscape:pageshadow="2"
     inkscape:zoom="3.959798"
     inkscape:cx="33.823311"
     inkscape:cy="78.00338"
     inkscape:document-units="mm"
     inkscape:current-layer="layer1"
     showgrid="false"
     inkscape:window-width="1767"
     inkscape:window-height="1408"
     inkscape:window-x="1864"
     inkscape:window-y="76"
     inkscape:window-maximized="0" />
  <metadata
     id="metadata5">
    <rdf:RDF>
      <cc:Work
         rdf:about="">
        <dc:format>image/svg+xml</dc:format>
        <dc:type
           rdf:resource="http://purl.org/dc/dcmitype/StillImage" />
        <dc:title />
      </cc:Work>
    </rdf:RDF>
  </metadata>
  <g
     inkscape:label="Layer 1"
     inkscape:groupmode="layer"
     id="layer1"
     transform="translate(-139.2871,161.82349)">
    <path
       sodipodi:type="inkscape:offset"
       inkscape:radius="0.51204997"
       inkscape:original="M 178.64648 -160.64453 C 178.02035 -160.67937 176.56869 -160.57065 176.49609 -160.49805 C 176.45034 -160.45235 176.27859 -160.4149 176.11328 -160.41406 C 175.66659 -160.41174 174.49703 -160.19023 173.93555 -160.00195 C 173.66443 -159.91101 173.33659 -159.85801 173.20898 -159.88281 C 173.06682 -159.91041 172.83187 -159.85826 172.60156 -159.75 C 172.39483 -159.65283 171.95692 -159.5121 171.62891 -159.4375 C 171.16328 -159.3316 170.98538 -159.24731 170.81836 -159.04883 C 170.56071 -158.74265 170.54666 -158.46286 170.77539 -158.25586 C 171.06071 -158.08106 171.33088 -157.95678 171.74219 -158.17383 C 171.99241 -158.30046 172.22766 -158.36308 172.34375 -158.33398 C 172.51487 -158.34994 172.66326 -158.42185 172.85938 -158.46875 C 172.9761 -158.46875 173.15115 -158.5106 173.24805 -158.5625 C 173.34499 -158.61438 173.58044 -158.6706 173.77148 -158.6875 C 174.18603 -158.72446 174.82631 -158.85159 175.47656 -159.06445 C 175.98801 -159.14444 177.05378 -159.40083 176.95898 -158.83008 C 176.86127 -158.69791 176.63736 -158.50161 176.46094 -158.39258 C 176.28452 -158.28356 176.04904 -158.06123 175.9375 -157.89844 C 175.82596 -157.73566 175.6469 -157.56082 175.53906 -157.51172 C 175.43122 -157.46258 175.26377 -157.29561 175.16797 -157.14062 C 175.07218 -156.98563 174.95967 -156.85938 174.91797 -156.85938 C 174.01773 -156.34764 173.5242 -155.24144 172.62109 -154.70117 C 172.40269 -154.56147 172.16269 -154.32313 172.08789 -154.17188 C 171.62574 -153.53499 171.05077 -153.09536 170.47852 -152.53125 C 170.45306 -152.45557 170.2546 -152.22716 170.03906 -152.02344 C 168.91722 -150.96313 168.16724 -149.99334 167.13477 -149.08008 C 167.04234 -148.99832 166.93414 -148.93312 166.83984 -148.85352 C 166.71908 -148.75161 166.60426 -148.6446 166.49219 -148.5332 C 166.23788 -148.28041 165.99683 -148.01338 165.75781 -147.74609 C 165.64933 -147.62478 165.53171 -147.51037 165.44141 -147.375 C 164.96401 -146.43208 163.50821 -145.84436 162.95312 -144.87891 C 162.74913 -144.69769 162.54005 -144.51964 162.3457 -144.32812 C 162.09693 -144.08298 161.87679 -143.81246 161.63086 -143.56445 C 160.6952 -142.61758 159.77767 -141.99498 158.96484 -140.84766 C 158.14176 -140.01265 157.38313 -139.27776 156.45508 -138.33984 C 156.25039 -138.1473 156.03157 -137.96932 155.83594 -137.76758 C 154.42517 -136.30271 152.44279 -134.54147 150.9375 -132.70898 C 150.85808 -132.62574 150.76955 -132.55126 150.68555 -132.47266 C 150.48303 -132.28313 150.27504 -132.09966 150.07812 -131.9043 C 150.01594 -131.8426 149.95858 -131.77469 149.89648 -131.71289 C 149.40384 -131.2358 148.82672 -130.83215 148.32031 -130.3418 C 148.17219 -130.20185 148.04451 -130.04132 147.91406 -129.88477 C 147.8409 -129.79697 147.77902 -129.70063 147.70312 -129.61523 C 147.13112 -128.97056 146.3877 -128.54189 145.83008 -127.85156 C 145.70955 -127.73532 145.57875 -127.62874 145.45898 -127.51172 C 145.38854 -127.44289 145.31956 -127.37393 145.25586 -127.29883 C 144.97619 -126.91893 144.66427 -126.5263 144.27344 -126.21289 C 144.22223 -126.1597 144.18447 -126.09562 144.13477 -126.04102 C 143.22965 -125.08155 141.86086 -124.0998 140.95117 -122.9082 C 140.4654 -122.6397 140.0463 -121.93054 139.5332 -121.52734 C 139.03935 -120.88743 138.57372 -119.93945 138.54492 -120.65039 C 138.60322 -120.92186 138.60567 -121.17889 138.60547 -121.48438 C 138.64441 -121.62013 138.70257 -121.99545 138.73438 -122.31836 C 138.80661 -123.01384 138.98699 -123.57296 139.05859 -124.29688 C 139.03149 -124.36744 139.04961 -124.61652 139.09961 -124.84961 C 139.21002 -125.36442 139.16866 -125.49125 138.83398 -125.6582 C 138.54995 -125.7999 138.279 -125.82199 138.11328 -125.7168 C 137.8986 -125.58053 137.66715 -124.9979 137.71875 -124.72266 C 137.70089 -124.37761 137.37298 -123.9089 137.45898 -123.39453 C 137.39102 -122.80201 137.43384 -122.22994 137.3125 -121.75391 C 137.38671 -121.66454 137.37683 -121.53111 137.27148 -121.19336 C 137.19538 -120.94947 137.13953 -120.53931 137.14453 -120.2832 C 137.15483 -119.78255 137.23679 -119.66705 137.10352 -119.00781 C 137.04152 -118.70115 136.99897 -117.99534 137.07617 -117.90234 C 137.22086 -116.95159 137.95191 -117.43032 138.81445 -117.28125 C 139.76381 -117.27417 140.88275 -117.43667 141.91211 -117.41797 C 142.35905 -117.34543 143.76715 -117.86467 143.87305 -118.14062 C 144.14425 -118.38964 143.50887 -118.88991 143.10938 -118.82031 C 142.59153 -118.86061 141.95663 -119.02085 141.35352 -118.88672 C 140.79558 -118.88783 140.17106 -118.98957 139.54492 -119.07227 C 139.36872 -119.09687 139.30854 -119.19492 139.61914 -119.5293 C 140.12271 -120.01416 140.71002 -120.46256 141.10742 -121.12109 C 141.55871 -121.81609 142.75516 -122.67984 143.29102 -123.16211 C 143.44373 -123.26358 143.59384 -123.34322 143.68164 -123.52734 C 143.68164 -123.62549 144.08611 -123.96888 144.30078 -124.17773 C 144.49206 -124.36383 144.69716 -124.53542 144.89648 -124.71289 C 145.11865 -124.9107 145.35427 -125.09615 145.56641 -125.30469 C 145.61891 -125.35625 145.66394 -125.4137 145.71484 -125.4668 C 147.89481 -127.65283 149.8336 -129.58684 152.10547 -131.79883 C 152.18188 -131.87122 152.24546 -131.9572 152.31836 -132.0332 C 154.10807 -133.87849 156.18852 -135.98524 158.07812 -137.89062 C 158.35073 -138.13264 158.61472 -138.38347 158.90234 -138.60742 C 159.27115 -138.85703 159.43519 -139.23327 159.7793 -139.5918 C 160.28207 -139.9407 160.66518 -140.41129 161.15234 -140.89648 C 161.28588 -141.03452 161.41333 -141.18032 161.54688 -141.31836 C 161.86774 -141.65003 162.21407 -141.95623 162.52539 -142.29688 C 162.7132 -142.51879 162.92027 -142.78249 163.13477 -143.01562 C 163.47769 -143.28843 163.82959 -143.53849 164.10742 -143.91016 C 164.32324 -144.14471 164.55788 -144.40491 164.7793 -144.66797 C 165.62954 -145.57226 166.69056 -146.455 167.58789 -147.4082 C 167.67616 -147.50474 167.7503 -147.61548 167.8418 -147.70898 C 167.96836 -147.83831 168.11167 -147.94943 168.24805 -148.06836 C 168.37337 -148.17764 168.50646 -148.278 168.62695 -148.39258 C 168.84593 -148.60081 169.03767 -148.83772 169.25195 -149.05078 C 169.62846 -149.42513 170.02333 -149.77903 170.41211 -150.14062 C 170.49311 -150.21596 170.57845 -150.28663 170.65625 -150.36523 C 171.01309 -150.72587 171.14632 -150.97201 171.67578 -151.49609 C 172.84977 -152.66203 173.94141 -154.15046 175.34766 -155.24219 C 175.85591 -155.73068 176.25529 -156.01987 176.84961 -156.91016 C 176.95214 -157.17862 177.52118 -157.67733 177.58008 -157.76953 C 178.04916 -158.50366 177.6171 -157.16905 177.49023 -156.5625 C 177.44194 -156.33033 177.51582 -155.85904 177.54492 -155.23438 C 177.55112 -155.09468 177.46094 -154.45443 177.46094 -154.36133 C 177.45915 -153.84409 177.51471 -153.22543 177.56641 -153.17383 C 177.59911 -153.14119 177.60383 -152.60704 177.57812 -152.47852 C 177.51681 -152.17191 178.22597 -152.04014 178.58594 -152.80664 C 178.9685 -154.17411 178.97324 -155.10302 179.02344 -156.04492 C 178.86379 -156.87667 179.249 -157.56955 179.1582 -158.41211 C 178.89459 -159.37858 179.66198 -160.56043 178.64648 -160.64453 z "
       style="fill:#242800;fill-opacity:1;stroke-width:0.08466667"
       id="path4542"
       d="m 178.67578,-161.15625 c -0.36448,-0.0203 -0.8836,3.3e-4 -1.34766,0.0332 -0.23202,0.0164 -0.44587,0.0368 -0.61718,0.0586 -0.0857,0.0109 -0.16025,0.0226 -0.23047,0.0371 -0.0351,0.007 -0.0692,0.0131 -0.11328,0.0273 -0.044,0.0142 -0.0883,-0.003 -0.23242,0.14062 0.15431,-0.15414 0.13402,-0.0863 0.10546,-0.0801 -0.0285,0.006 -0.084,0.0134 -0.1289,0.0137 -0.61132,0.003 -1.68797,0.21956 -2.33789,0.4375 -0.105,0.0352 -0.23482,0.0672 -0.33789,0.084 -0.10307,0.0168 -0.21277,0.003 -0.12891,0.0195 -0.36425,-0.0707 -0.62948,0.0335 -0.92383,0.17188 -0.12704,0.0597 -0.57887,0.20982 -0.86719,0.27539 -0.49542,0.11268 -0.85347,0.2777 -1.08984,0.55859 -0.17535,0.20838 -0.30703,0.44979 -0.32226,0.73633 -0.0152,0.28655 0.12479,0.58161 0.32812,0.76563 a 0.51210118,0.51210118 0 0 0 0.0762,0.0586 c 0.15796,0.0968 0.35518,0.21183 0.61914,0.25586 0.26397,0.044 0.57126,-0.009 0.85352,-0.1582 0.0943,-0.047 0.18566,-0.0821 0.24414,-0.0977 0.0604,-0.0161 0.0992,0.007 -0.006,-0.0195 a 0.51210118,0.51210118 0 0 0 0.17187,0.0137 c 0.28547,-0.0266 0.4501,-0.11353 0.5879,-0.14648 l -0.11914,0.0137 c 0.23911,0 0.40869,-0.0353 0.63085,-0.1543 -0.0715,0.0383 0.19764,-0.055 0.32618,-0.0664 0.47154,-0.042 1.1329,-0.17537 1.82031,-0.40039 l -0.0801,0.0195 c 0.13013,-0.0204 0.26208,-0.0317 0.4082,-0.0547 -0.16021,0.13153 -0.3305,0.25252 -0.44922,0.42578 -0.0319,0.0465 -0.0866,0.11132 -0.13476,0.1582 -0.0482,0.0469 -0.1121,0.0769 -0.0547,0.0508 -0.3241,0.14769 -0.44412,0.32628 -0.59375,0.56836 -0.032,0.0517 -0.0678,0.0998 -0.0879,0.12305 -9.3e-4,0.001 -0.003,0.005 -0.004,0.006 -0.53611,0.31363 -0.91675,0.75693 -1.25976,1.1582 -0.34965,0.40904 -0.66875,0.77024 -1.02344,0.98243 a 0.51210118,0.51210118 0 0 0 -0.0117,0.008 c -0.29766,0.1904 -0.54381,0.3846 -0.71679,0.73437 l 0.0449,-0.0742 c -0.40937,0.56416 -0.95504,0.98506 -1.55469,1.57618 a 0.51210118,0.51210118 0 0 0 -0.10352,0.14648 c -0.0126,0.0174 -0.0393,0.0517 -0.0723,0.0898 -0.066,0.0762 -0.1605,0.17355 -0.25586,0.26368 -1.15232,1.08911 -1.90268,2.05799 -2.89258,2.93359 -0.0451,0.0399 -0.14864,0.10352 -0.28515,0.21875 -0.13352,0.11268 -0.2591,0.22856 -0.37891,0.34766 -0.26744,0.26584 -0.51382,0.5401 -0.75391,0.80859 -0.0925,0.10346 -0.23103,0.23435 -0.36133,0.42969 a 0.51210118,0.51210118 0 0 0 -0.0312,0.0527 c -0.16332,0.32258 -0.58283,0.6822 -1.07422,1.06641 -0.45193,0.35335 -0.94455,0.74383 -1.29688,1.27734 -0.19861,0.17644 -0.41484,0.35934 -0.62695,0.56836 -0.27535,0.27133 -0.49633,0.54328 -0.71875,0.76758 a 0.51210118,0.51210118 0 0 0 0,0.002 c -0.8969,0.90765 -1.85331,1.55496 -2.7207,2.7793 l 0.0527,-0.0625 c -0.81396,0.82575 -1.57043,1.55895 -2.49609,2.49414 -0.18674,0.17565 -0.41107,0.35721 -0.63477,0.58789 a 0.51210118,0.51210118 0 0 0 -0.002,0.002 c -1.37951,1.43241 -3.36068,3.19299 -4.90039,5.06055 -0.0535,0.0561 -0.13325,0.12582 -0.23047,0.2168 -0.19519,0.18266 -0.40804,0.36869 -0.61914,0.57812 -0.0838,0.0831 -0.14074,0.1507 -0.18164,0.19141 -0.45208,0.43678 -1.02695,0.84105 -1.57032,1.36719 -0.18061,0.17159 -0.31922,0.34712 -0.44336,0.49609 -0.10018,0.12023 -0.16049,0.21205 -0.20117,0.25781 -0.5006,0.56421 -1.25637,0.99847 -1.88867,1.78125 l 0.043,-0.0469 c -0.0999,0.0963 -0.23115,0.20315 -0.37305,0.34179 -0.0732,0.0715 -0.15469,0.15181 -0.23633,0.24805 a 0.51210118,0.51210118 0 0 0 -0.0215,0.0293 c -0.27177,0.36916 -0.55889,0.72226 -0.89063,0.98828 a 0.51210118,0.51210118 0 0 0 -0.0488,0.0449 c -0.1021,0.10605 -0.13732,0.16807 -0.14258,0.17578 -0.84794,0.89886 -2.23909,1.89314 -3.2168,3.17383 l 0.1582,-0.13672 c -0.35536,0.19642 -0.60076,0.48245 -0.83593,0.75 -0.23518,0.26756 -0.45526,0.52245 -0.65039,0.67578 a 0.51210118,0.51210118 0 0 0 -0.0312,0.0254 c 0.0169,-0.12691 0.0453,-0.22634 0.0586,-0.36132 v -0.002 c 0.0663,-0.63565 0.24694,-1.19722 0.32422,-1.97851 a 0.51210118,0.51210118 0 0 0 -0.0312,-0.23438 c 0.0724,0.18863 0.0181,0.0786 0.0234,0.006 0.005,-0.0727 0.0192,-0.1752 0.0391,-0.26758 0.0598,-0.27865 0.11731,-0.51074 0.0215,-0.80273 -0.0958,-0.29199 -0.35244,-0.46943 -0.55859,-0.57227 -0.38141,-0.19028 -0.81635,-0.28915 -1.22266,-0.0312 -0.31581,0.20047 -0.39957,0.43453 -0.5,0.6875 -0.10043,0.25297 -0.1884,0.49382 -0.125,0.83203 l -0.008,-0.12109 c -0.001,0.0229 -0.0626,0.21817 -0.14453,0.46875 -0.082,0.25058 -0.174,0.58417 -0.10938,0.9707 l -0.002,-0.14257 c -0.075,0.65377 -0.0448,1.21932 -0.13476,1.57226 a 0.51210118,0.51210118 0 0 0 0.0215,0.31836 c -0.005,0.0297 -0.0141,0.0867 -0.0547,0.2168 -0.1035,0.33171 -0.15705,0.73109 -0.15039,1.07226 0.0114,0.55488 0.0916,0.55618 -0.0312,1.16406 -0.0416,0.20583 -0.0665,0.46381 -0.0762,0.71485 -0.005,0.12552 -0.004,0.24511 0.004,0.35937 0.004,0.0571 0.008,0.11248 0.0215,0.17774 0.0138,0.0653 0.0122,0.13827 0.13086,0.28125 l -0.11133,-0.25 c 0.0468,0.30741 0.1586,0.58876 0.37696,0.7832 0.21835,0.19444 0.4869,0.25143 0.69921,0.26367 0.42464,0.0245 0.76338,-0.0528 1.08008,0.002 a 0.51210118,0.51210118 0 0 0 0.084,0.008 c 1.01078,0.008 2.12303,-0.15432 3.09179,-0.13672 l -0.0723,-0.006 c 0.24906,0.0404 0.44528,5.1e-4 0.67187,-0.0488 0.22659,-0.0493 0.46491,-0.1221 0.69532,-0.20703 0.23041,-0.0849 0.44996,-0.18122 0.63867,-0.28711 0.0944,-0.0529 0.1814,-0.10694 0.26562,-0.17578 0.042,-0.0343 0.082,-0.11277 0.125,-0.16211 0.18551,-0.19255 0.25278,-0.52659 0.18164,-0.73437 -0.074,-0.21612 -0.2003,-0.35046 -0.33593,-0.46485 -0.27126,-0.22878 -0.60145,-0.41031 -1.05079,-0.33203 l 0.12696,-0.006 c -0.44545,-0.0347 -1.14444,-0.22606 -1.90625,-0.0566 l 0.11328,-0.0117 c -0.28798,-5.7e-4 -0.66441,-0.0618 -1.01172,-0.10547 0.40762,-0.36846 0.84898,-0.76989 1.20117,-1.35351 l -0.008,0.0156 c 0.16585,-0.25541 0.55491,-0.63989 0.96484,-0.99218 0.40994,-0.35229 0.83506,-0.68105 1.13086,-0.94727 l -0.0586,0.0449 c 0.12674,-0.0842 0.4096,-0.2333 0.57031,-0.57031 a 0.51210118,0.51210118 0 0 0 0.008,-0.0176 c 0.0228,-0.0261 0.0625,-0.068 0.11524,-0.11914 0.11591,-0.11254 0.26862,-0.24849 0.39062,-0.36719 0.17291,-0.16822 0.37094,-0.33505 0.57813,-0.51953 0.20659,-0.18394 0.45037,-0.37435 0.68945,-0.60937 0.0803,-0.0788 0.12423,-0.13578 0.15234,-0.16602 2.17774,-2.18379 4.11186,-4.11489 6.37891,-6.32226 0.11893,-0.11268 0.18611,-0.20329 0.22852,-0.24805 l 0.002,-0.004 c 1.78423,-1.8396 3.86004,-3.93997 5.74609,-5.84179 0.003,-0.003 0.005,-0.005 0.008,-0.008 0.27137,-0.24174 0.522,-0.47653 0.77539,-0.67382 l -0.0274,0.0195 c 0.50824,-0.34398 0.68251,-0.76467 0.95899,-1.05274 l -0.0781,0.0645 c 0.57985,-0.40239 0.97839,-0.89823 1.44336,-1.36132 a 0.51210118,0.51210118 0 0 0 0.006,-0.008 c 0.14562,-0.15052 0.27307,-0.29632 0.39453,-0.42187 0.30234,-0.31252 0.65442,-0.62083 0.99024,-0.98828 a 0.51210118,0.51210118 0 0 0 0.0117,-0.0156 c 0.19713,-0.23293 0.40029,-0.48879 0.5957,-0.70117 0.3177,-0.24937 0.68806,-0.51041 1.00586,-0.93555 l -0.0332,0.041 c 0.21225,-0.23067 0.44478,-0.48978 0.66796,-0.75391 l 0.004,-0.004 c 0.81806,-0.86938 1.87873,-1.75272 2.80469,-2.73633 a 0.51210118,0.51210118 0 0 0 0.004,-0.006 c 0.12351,-0.13508 0.19534,-0.24119 0.24219,-0.28906 0.094,-0.096 0.22573,-0.19821 0.37695,-0.33008 0.10702,-0.0933 0.24775,-0.1984 0.39649,-0.33984 0.25136,-0.23903 0.44481,-0.47909 0.63281,-0.66602 0.364,-0.36191 0.75506,-0.71225 1.14844,-1.07812 0.0666,-0.0619 0.15626,-0.13765 0.25781,-0.24024 0.39395,-0.39815 0.51261,-0.62905 1.01563,-1.12695 a 0.51210118,0.51210118 0 0 0 0.002,0 c 1.21598,-1.20765 2.29543,-2.67288 3.625,-3.70508 a 0.51210118,0.51210118 0 0 0 0.041,-0.0352 c 0.3942,-0.37887 0.81458,-0.82167 1.2793,-1.42578 0.003,0.0933 -0.0113,0.1859 -0.004,0.28906 0.0167,0.23422 0.0408,0.50064 0.0547,0.79883 -0.003,-0.0746 -0.0156,0.18449 -0.0371,0.3711 -0.0107,0.0933 -0.0206,0.18702 -0.0293,0.26562 -0.009,0.0779 -0.0174,0.10736 -0.0176,0.21094 -9.6e-4,0.27766 0.0134,0.57289 0.0352,0.8164 0.0109,0.12176 0.0229,0.22877 0.0391,0.32422 0.008,0.0477 0.0165,0.0905 0.0312,0.14258 0.002,0.007 0.0188,0.0283 0.0195,0.0352 -4e-5,4.3e-4 7.9e-4,0.003 0.002,0.0176 0.003,0.0376 0.005,0.10331 0.006,0.17187 0.002,0.13711 -0.0209,0.35279 -0.006,0.27735 -0.0539,0.26968 0.099,0.57411 0.29297,0.70703 0.19401,0.13291 0.40605,0.16432 0.61328,0.14062 0.41447,-0.0474 0.82663,-0.3488 1.06641,-0.85937 a 0.51210118,0.51210118 0 0 0 0.0293,-0.0781 c 0.39848,-1.42435 0.4077,-2.42386 0.45704,-3.34961 a 0.51210118,0.51210118 0 0 0 -0.01,-0.12304 c -0.0605,-0.31516 -0.0189,-0.62271 0.0449,-0.99805 0.0638,-0.37535 0.15293,-0.81529 0.0977,-1.32813 a 0.51210118,0.51210118 0 0 0 -0.0156,-0.0801 c -0.0847,-0.31041 0.006,-0.77865 0.043,-1.27343 0.0185,-0.24739 0.0336,-0.52534 -0.12695,-0.82031 -0.16059,-0.29498 -0.52144,-0.48407 -0.87891,-0.51368 a 0.51210118,0.51210118 0 0 0 -0.0137,-0.002 z m -1.59961,8.11523 c 0.005,0.0451 -0.0176,0.0842 0.12891,0.23047 5.1e-4,5.1e-4 -0.05,-0.0563 -0.0645,-0.0781 -0.0144,-0.0218 -0.0239,-0.0398 -0.0312,-0.0547 -0.0146,-0.0299 -0.0209,-0.0503 -0.0254,-0.0644 -0.007,-0.022 -0.007,-0.0272 -0.008,-0.0332 z"
       transform="matrix(0.9015615,0.14399471,0.03629709,0.91449295,20.498447,-39.971871)" />
  </g>
</svg>
